<?xml version="1.0" encoding="utf-8" standalone="no"?>
<!DOCTYPE svg PUBLIC "-//W3C//DTD SVG 1.1//EN"
  "http://www.w3.org/Graphics/SVG/1.1/DTD/svg11.dtd">
<svg xmlns:xlink="http://www.w3.org/1999/xlink" width="1008pt" height="576pt" viewBox="0 0 1008 576" xmlns="http://www.w3.org/2000/svg" version="1.1">
 <metadata>
  <rdf:RDF xmlns:dc="http://purl.org/dc/elements/1.1/" xmlns:cc="http://creativecommons.org/ns#" xmlns:rdf="http://www.w3.org/1999/02/22-rdf-syntax-ns#">
   <cc:Work>
    <dc:type rdf:resource="http://purl.org/dc/dcmitype/StillImage"/>
    <dc:date>2024-07-01T15:58:01.555898</dc:date>
    <dc:format>image/svg+xml</dc:format>
    <dc:creator>
     <cc:Agent>
      <dc:title>Matplotlib v3.6.3, https://matplotlib.org/</dc:title>
     </cc:Agent>
    </dc:creator>
   </cc:Work>
  </rdf:RDF>
 </metadata>
 <defs>
  <style type="text/css">*{stroke-linejoin: round; stroke-linecap: butt}</style>
 </defs>
 <g id="figure_1">
  <g id="patch_1">
   <path d="M 0 576 
L 1008 576 
L 1008 0 
L 0 0 
L 0 576 
z
" style="fill: none"/>
  </g>
  <g id="axes_1">
   <g id="patch_2">
    <path d="M 43.175 510.418464 
L 997.2 510.418464 
L 997.2 29.04 
L 43.175 29.04 
L 43.175 510.418464 
z
" style="fill: none"/>
   </g>
   <g id="matplotlib.axis_1">
    <g id="xtick_1">
     <g id="line2d_1">
      <path d="M 86.539773 510.418464 
L 86.539773 29.04 
" clip-path="url(#p8ec43f6dce)" style="fill: none; stroke-dasharray: 2.22,0.96; stroke-dashoffset: 0; stroke: #ffffff; stroke-opacity: 0.7; stroke-width: 0.6"/>
     </g>
     <g id="line2d_2">
      <defs>
       <path id="m7608254dee" d="M 0 0 
L 0 3.5 
" style="stroke: #555555; stroke-width: 0.8"/>
      </defs>
      <g>
       <use xlink:href="#m7608254dee" x="86.539773" y="510.418464" style="fill: #555555; stroke: #555555; stroke-width: 0.8"/>
      </g>
     </g>
     <g id="text_1">
      <!-- 2009 -->
      <g style="fill: #555555" transform="translate(78.08366 545.460993) rotate(-45) scale(0.12 -0.12)">
       <defs>
        <path id="DejaVuSans-32" d="M 1228 531 
L 3431 531 
L 3431 0 
L 469 0 
L 469 531 
Q 828 903 1448 1529 
Q 2069 2156 2228 2338 
Q 2531 2678 2651 2914 
Q 2772 3150 2772 3378 
Q 2772 3750 2511 3984 
Q 2250 4219 1831 4219 
Q 1534 4219 1204 4116 
Q 875 4013 500 3803 
L 500 4441 
Q 881 4594 1212 4672 
Q 1544 4750 1819 4750 
Q 2544 4750 2975 4387 
Q 3406 4025 3406 3419 
Q 3406 3131 3298 2873 
Q 3191 2616 2906 2266 
Q 2828 2175 2409 1742 
Q 1991 1309 1228 531 
z
" transform="scale(0.015625)"/>
        <path id="DejaVuSans-30" d="M 2034 4250 
Q 1547 4250 1301 3770 
Q 1056 3291 1056 2328 
Q 1056 1369 1301 889 
Q 1547 409 2034 409 
Q 2525 409 2770 889 
Q 3016 1369 3016 2328 
Q 3016 3291 2770 3770 
Q 2525 4250 2034 4250 
z
M 2034 4750 
Q 2819 4750 3233 4129 
Q 3647 3509 3647 2328 
Q 3647 1150 3233 529 
Q 2819 -91 2034 -91 
Q 1250 -91 836 529 
Q 422 1150 422 2328 
Q 422 3509 836 4129 
Q 1250 4750 2034 4750 
z
" transform="scale(0.015625)"/>
        <path id="DejaVuSans-39" d="M 703 97 
L 703 672 
Q 941 559 1184 500 
Q 1428 441 1663 441 
Q 2288 441 2617 861 
Q 2947 1281 2994 2138 
Q 2813 1869 2534 1725 
Q 2256 1581 1919 1581 
Q 1219 1581 811 2004 
Q 403 2428 403 3163 
Q 403 3881 828 4315 
Q 1253 4750 1959 4750 
Q 2769 4750 3195 4129 
Q 3622 3509 3622 2328 
Q 3622 1225 3098 567 
Q 2575 -91 1691 -91 
Q 1453 -91 1209 -44 
Q 966 3 703 97 
z
M 1959 2075 
Q 2384 2075 2632 2365 
Q 2881 2656 2881 3163 
Q 2881 3666 2632 3958 
Q 2384 4250 1959 4250 
Q 1534 4250 1286 3958 
Q 1038 3666 1038 3163 
Q 1038 2656 1286 2365 
Q 1534 2075 1959 2075 
z
" transform="scale(0.015625)"/>
       </defs>
       <use xlink:href="#DejaVuSans-32"/>
       <use xlink:href="#DejaVuSans-30" x="63.623047"/>
       <use xlink:href="#DejaVuSans-30" x="127.246094"/>
       <use xlink:href="#DejaVuSans-39" x="190.869141"/>
      </g>
     </g>
    </g>
    <g id="xtick_2">
     <g id="line2d_3">
      <path d="M 194.951705 510.418464 
L 194.951705 29.04 
" clip-path="url(#p8ec43f6dce)" style="fill: none; stroke-dasharray: 2.22,0.96; stroke-dashoffset: 0; stroke: #ffffff; stroke-opacity: 0.7; stroke-width: 0.6"/>
     </g>
     <g id="line2d_4">
      <g>
       <use xlink:href="#m7608254dee" x="194.951705" y="510.418464" style="fill: #555555; stroke: #555555; stroke-width: 0.8"/>
      </g>
     </g>
     <g id="text_2">
      <!-- 2010 -->
      <g style="fill: #555555" transform="translate(186.495591 545.460993) rotate(-45) scale(0.12 -0.12)">
       <defs>
        <path id="DejaVuSans-31" d="M 794 531 
L 1825 531 
L 1825 4091 
L 703 3866 
L 703 4441 
L 1819 4666 
L 2450 4666 
L 2450 531 
L 3481 531 
L 3481 0 
L 794 0 
L 794 531 
z
" transform="scale(0.015625)"/>
       </defs>
       <use xlink:href="#DejaVuSans-32"/>
       <use xlink:href="#DejaVuSans-30" x="63.623047"/>
       <use xlink:href="#DejaVuSans-31" x="127.246094"/>
       <use xlink:href="#DejaVuSans-30" x="190.869141"/>
      </g>
     </g>
    </g>
    <g id="xtick_3">
     <g id="line2d_5">
      <path d="M 303.363636 510.418464 
L 303.363636 29.04 
" clip-path="url(#p8ec43f6dce)" style="fill: none; stroke-dasharray: 2.22,0.96; stroke-dashoffset: 0; stroke: #ffffff; stroke-opacity: 0.7; stroke-width: 0.6"/>
     </g>
     <g id="line2d_6">
      <g>
       <use xlink:href="#m7608254dee" x="303.363636" y="510.418464" style="fill: #555555; stroke: #555555; stroke-width: 0.8"/>
      </g>
     </g>
     <g id="text_3">
      <!-- 2011 -->
      <g style="fill: #555555" transform="translate(294.907523 545.460993) rotate(-45) scale(0.12 -0.12)">
       <use xlink:href="#DejaVuSans-32"/>
       <use xlink:href="#DejaVuSans-30" x="63.623047"/>
       <use xlink:href="#DejaVuSans-31" x="127.246094"/>
       <use xlink:href="#DejaVuSans-31" x="190.869141"/>
      </g>
     </g>
    </g>
    <g id="xtick_4">
     <g id="line2d_7">
      <path d="M 411.775568 510.418464 
L 411.775568 29.04 
" clip-path="url(#p8ec43f6dce)" style="fill: none; stroke-dasharray: 2.22,0.96; stroke-dashoffset: 0; stroke: #ffffff; stroke-opacity: 0.7; stroke-width: 0.6"/>
     </g>
     <g id="line2d_8">
      <g>
       <use xlink:href="#m7608254dee" x="411.775568" y="510.418464" style="fill: #555555; stroke: #555555; stroke-width: 0.8"/>
      </g>
     </g>
     <g id="text_4">
      <!-- 2012 -->
      <g style="fill: #555555" transform="translate(403.319455 545.460993) rotate(-45) scale(0.12 -0.12)">
       <use xlink:href="#DejaVuSans-32"/>
       <use xlink:href="#DejaVuSans-30" x="63.623047"/>
       <use xlink:href="#DejaVuSans-31" x="127.246094"/>
       <use xlink:href="#DejaVuSans-32" x="190.869141"/>
      </g>
     </g>
    </g>
    <g id="xtick_5">
     <g id="line2d_9">
      <path d="M 520.1875 510.418464 
L 520.1875 29.04 
" clip-path="url(#p8ec43f6dce)" style="fill: none; stroke-dasharray: 2.22,0.96; stroke-dashoffset: 0; stroke: #ffffff; stroke-opacity: 0.7; stroke-width: 0.6"/>
     </g>
     <g id="line2d_10">
      <g>
       <use xlink:href="#m7608254dee" x="520.1875" y="510.418464" style="fill: #555555; stroke: #555555; stroke-width: 0.8"/>
      </g>
     </g>
     <g id="text_5">
      <!-- 2013 -->
      <g style="fill: #555555" transform="translate(511.731387 545.460993) rotate(-45) scale(0.12 -0.12)">
       <defs>
        <path id="DejaVuSans-33" d="M 2597 2516 
Q 3050 2419 3304 2112 
Q 3559 1806 3559 1356 
Q 3559 666 3084 287 
Q 2609 -91 1734 -91 
Q 1441 -91 1130 -33 
Q 819 25 488 141 
L 488 750 
Q 750 597 1062 519 
Q 1375 441 1716 441 
Q 2309 441 2620 675 
Q 2931 909 2931 1356 
Q 2931 1769 2642 2001 
Q 2353 2234 1838 2234 
L 1294 2234 
L 1294 2753 
L 1863 2753 
Q 2328 2753 2575 2939 
Q 2822 3125 2822 3475 
Q 2822 3834 2567 4026 
Q 2313 4219 1838 4219 
Q 1578 4219 1281 4162 
Q 984 4106 628 3988 
L 628 4550 
Q 988 4650 1302 4700 
Q 1616 4750 1894 4750 
Q 2613 4750 3031 4423 
Q 3450 4097 3450 3541 
Q 3450 3153 3228 2886 
Q 3006 2619 2597 2516 
z
" transform="scale(0.015625)"/>
       </defs>
       <use xlink:href="#DejaVuSans-32"/>
       <use xlink:href="#DejaVuSans-30" x="63.623047"/>
       <use xlink:href="#DejaVuSans-31" x="127.246094"/>
       <use xlink:href="#DejaVuSans-33" x="190.869141"/>
      </g>
     </g>
    </g>
    <g id="xtick_6">
     <g id="line2d_11">
      <path d="M 628.599432 510.418464 
L 628.599432 29.04 
" clip-path="url(#p8ec43f6dce)" style="fill: none; stroke-dasharray: 2.22,0.96; stroke-dashoffset: 0; stroke: #ffffff; stroke-opacity: 0.7; stroke-width: 0.6"/>
     </g>
     <g id="line2d_12">
      <g>
       <use xlink:href="#m7608254dee" x="628.599432" y="510.418464" style="fill: #555555; stroke: #555555; stroke-width: 0.8"/>
      </g>
     </g>
     <g id="text_6">
      <!-- 2014 -->
      <g style="fill: #555555" transform="translate(620.143319 545.460993) rotate(-45) scale(0.12 -0.12)">
       <defs>
        <path id="DejaVuSans-34" d="M 2419 4116 
L 825 1625 
L 2419 1625 
L 2419 4116 
z
M 2253 4666 
L 3047 4666 
L 3047 1625 
L 3713 1625 
L 3713 1100 
L 3047 1100 
L 3047 0 
L 2419 0 
L 2419 1100 
L 313 1100 
L 313 1709 
L 2253 4666 
z
" transform="scale(0.015625)"/>
       </defs>
       <use xlink:href="#DejaVuSans-32"/>
       <use xlink:href="#DejaVuSans-30" x="63.623047"/>
       <use xlink:href="#DejaVuSans-31" x="127.246094"/>
       <use xlink:href="#DejaVuSans-34" x="190.869141"/>
      </g>
     </g>
    </g>
    <g id="xtick_7">
     <g id="line2d_13">
      <path d="M 737.011364 510.418464 
L 737.011364 29.04 
" clip-path="url(#p8ec43f6dce)" style="fill: none; stroke-dasharray: 2.22,0.96; stroke-dashoffset: 0; stroke: #ffffff; stroke-opacity: 0.7; stroke-width: 0.6"/>
     </g>
     <g id="line2d_14">
      <g>
       <use xlink:href="#m7608254dee" x="737.011364" y="510.418464" style="fill: #555555; stroke: #555555; stroke-width: 0.8"/>
      </g>
     </g>
     <g id="text_7">
      <!-- 2015 -->
      <g style="fill: #555555" transform="translate(728.55525 545.460993) rotate(-45) scale(0.12 -0.12)">
       <defs>
        <path id="DejaVuSans-35" d="M 691 4666 
L 3169 4666 
L 3169 4134 
L 1269 4134 
L 1269 2991 
Q 1406 3038 1543 3061 
Q 1681 3084 1819 3084 
Q 2600 3084 3056 2656 
Q 3513 2228 3513 1497 
Q 3513 744 3044 326 
Q 2575 -91 1722 -91 
Q 1428 -91 1123 -41 
Q 819 9 494 109 
L 494 744 
Q 775 591 1075 516 
Q 1375 441 1709 441 
Q 2250 441 2565 725 
Q 2881 1009 2881 1497 
Q 2881 1984 2565 2268 
Q 2250 2553 1709 2553 
Q 1456 2553 1204 2497 
Q 953 2441 691 2322 
L 691 4666 
z
" transform="scale(0.015625)"/>
       </defs>
       <use xlink:href="#DejaVuSans-32"/>
       <use xlink:href="#DejaVuSans-30" x="63.623047"/>
       <use xlink:href="#DejaVuSans-31" x="127.246094"/>
       <use xlink:href="#DejaVuSans-35" x="190.869141"/>
      </g>
     </g>
    </g>
    <g id="xtick_8">
     <g id="line2d_15">
      <path d="M 845.423295 510.418464 
L 845.423295 29.04 
" clip-path="url(#p8ec43f6dce)" style="fill: none; stroke-dasharray: 2.22,0.96; stroke-dashoffset: 0; stroke: #ffffff; stroke-opacity: 0.7; stroke-width: 0.6"/>
     </g>
     <g id="line2d_16">
      <g>
       <use xlink:href="#m7608254dee" x="845.423295" y="510.418464" style="fill: #555555; stroke: #555555; stroke-width: 0.8"/>
      </g>
     </g>
     <g id="text_8">
      <!-- 2016 -->
      <g style="fill: #555555" transform="translate(836.967182 545.460993) rotate(-45) scale(0.12 -0.12)">
       <defs>
        <path id="DejaVuSans-36" d="M 2113 2584 
Q 1688 2584 1439 2293 
Q 1191 2003 1191 1497 
Q 1191 994 1439 701 
Q 1688 409 2113 409 
Q 2538 409 2786 701 
Q 3034 994 3034 1497 
Q 3034 2003 2786 2293 
Q 2538 2584 2113 2584 
z
M 3366 4563 
L 3366 3988 
Q 3128 4100 2886 4159 
Q 2644 4219 2406 4219 
Q 1781 4219 1451 3797 
Q 1122 3375 1075 2522 
Q 1259 2794 1537 2939 
Q 1816 3084 2150 3084 
Q 2853 3084 3261 2657 
Q 3669 2231 3669 1497 
Q 3669 778 3244 343 
Q 2819 -91 2113 -91 
Q 1303 -91 875 529 
Q 447 1150 447 2328 
Q 447 3434 972 4092 
Q 1497 4750 2381 4750 
Q 2619 4750 2861 4703 
Q 3103 4656 3366 4563 
z
" transform="scale(0.015625)"/>
       </defs>
       <use xlink:href="#DejaVuSans-32"/>
       <use xlink:href="#DejaVuSans-30" x="63.623047"/>
       <use xlink:href="#DejaVuSans-31" x="127.246094"/>
       <use xlink:href="#DejaVuSans-36" x="190.869141"/>
      </g>
     </g>
    </g>
    <g id="xtick_9">
     <g id="line2d_17">
      <path d="M 953.835227 510.418464 
L 953.835227 29.04 
" clip-path="url(#p8ec43f6dce)" style="fill: none; stroke-dasharray: 2.22,0.96; stroke-dashoffset: 0; stroke: #ffffff; stroke-opacity: 0.7; stroke-width: 0.6"/>
     </g>
     <g id="line2d_18">
      <g>
       <use xlink:href="#m7608254dee" x="953.835227" y="510.418464" style="fill: #555555; stroke: #555555; stroke-width: 0.8"/>
      </g>
     </g>
     <g id="text_9">
      <!-- 2017 -->
      <g style="fill: #555555" transform="translate(945.379114 545.460993) rotate(-45) scale(0.12 -0.12)">
       <defs>
        <path id="DejaVuSans-37" d="M 525 4666 
L 3525 4666 
L 3525 4397 
L 1831 0 
L 1172 0 
L 2766 4134 
L 525 4134 
L 525 4666 
z
" transform="scale(0.015625)"/>
       </defs>
       <use xlink:href="#DejaVuSans-32"/>
       <use xlink:href="#DejaVuSans-30" x="63.623047"/>
       <use xlink:href="#DejaVuSans-31" x="127.246094"/>
       <use xlink:href="#DejaVuSans-37" x="190.869141"/>
      </g>
     </g>
    </g>
    <g id="text_10">
     <!-- Jahre -->
     <g style="fill: #555555" transform="translate(502.369219 561.863479) scale(0.14 -0.14)">
      <defs>
       <path id="DejaVuSans-4a" d="M 628 4666 
L 1259 4666 
L 1259 325 
Q 1259 -519 939 -900 
Q 619 -1281 -91 -1281 
L -331 -1281 
L -331 -750 
L -134 -750 
Q 284 -750 456 -515 
Q 628 -281 628 325 
L 628 4666 
z
" transform="scale(0.015625)"/>
       <path id="DejaVuSans-61" d="M 2194 1759 
Q 1497 1759 1228 1600 
Q 959 1441 959 1056 
Q 959 750 1161 570 
Q 1363 391 1709 391 
Q 2188 391 2477 730 
Q 2766 1069 2766 1631 
L 2766 1759 
L 2194 1759 
z
M 3341 1997 
L 3341 0 
L 2766 0 
L 2766 531 
Q 2569 213 2275 61 
Q 1981 -91 1556 -91 
Q 1019 -91 701 211 
Q 384 513 384 1019 
Q 384 1609 779 1909 
Q 1175 2209 1959 2209 
L 2766 2209 
L 2766 2266 
Q 2766 2663 2505 2880 
Q 2244 3097 1772 3097 
Q 1472 3097 1187 3025 
Q 903 2953 641 2809 
L 641 3341 
Q 956 3463 1253 3523 
Q 1550 3584 1831 3584 
Q 2591 3584 2966 3190 
Q 3341 2797 3341 1997 
z
" transform="scale(0.015625)"/>
       <path id="DejaVuSans-68" d="M 3513 2113 
L 3513 0 
L 2938 0 
L 2938 2094 
Q 2938 2591 2744 2837 
Q 2550 3084 2163 3084 
Q 1697 3084 1428 2787 
Q 1159 2491 1159 1978 
L 1159 0 
L 581 0 
L 581 4863 
L 1159 4863 
L 1159 2956 
Q 1366 3272 1645 3428 
Q 1925 3584 2291 3584 
Q 2894 3584 3203 3211 
Q 3513 2838 3513 2113 
z
" transform="scale(0.015625)"/>
       <path id="DejaVuSans-72" d="M 2631 2963 
Q 2534 3019 2420 3045 
Q 2306 3072 2169 3072 
Q 1681 3072 1420 2755 
Q 1159 2438 1159 1844 
L 1159 0 
L 581 0 
L 581 3500 
L 1159 3500 
L 1159 2956 
Q 1341 3275 1631 3429 
Q 1922 3584 2338 3584 
Q 2397 3584 2469 3576 
Q 2541 3569 2628 3553 
L 2631 2963 
z
" transform="scale(0.015625)"/>
       <path id="DejaVuSans-65" d="M 3597 1894 
L 3597 1613 
L 953 1613 
Q 991 1019 1311 708 
Q 1631 397 2203 397 
Q 2534 397 2845 478 
Q 3156 559 3463 722 
L 3463 178 
Q 3153 47 2828 -22 
Q 2503 -91 2169 -91 
Q 1331 -91 842 396 
Q 353 884 353 1716 
Q 353 2575 817 3079 
Q 1281 3584 2069 3584 
Q 2775 3584 3186 3129 
Q 3597 2675 3597 1894 
z
M 3022 2063 
Q 3016 2534 2758 2815 
Q 2500 3097 2075 3097 
Q 1594 3097 1305 2825 
Q 1016 2553 972 2059 
L 3022 2063 
z
" transform="scale(0.015625)"/>
      </defs>
      <use xlink:href="#DejaVuSans-4a"/>
      <use xlink:href="#DejaVuSans-61" x="29.492188"/>
      <use xlink:href="#DejaVuSans-68" x="90.771484"/>
      <use xlink:href="#DejaVuSans-72" x="154.150391"/>
      <use xlink:href="#DejaVuSans-65" x="193.013672"/>
     </g>
    </g>
   </g>
   <g id="matplotlib.axis_2">
    <g id="ytick_1">
     <g id="line2d_19">
      <path d="M 43.175 470.510797 
L 997.2 470.510797 
" clip-path="url(#p8ec43f6dce)" style="fill: none; stroke-dasharray: 2.22,0.96; stroke-dashoffset: 0; stroke: #ffffff; stroke-opacity: 0.7; stroke-width: 0.6"/>
     </g>
     <g id="line2d_20">
      <defs>
       <path id="m7bd29f4cea" d="M 0 0 
L -3.5 0 
" style="stroke: #555555; stroke-width: 0.8"/>
      </defs>
      <g>
       <use xlink:href="#m7bd29f4cea" x="43.175" y="470.510797" style="fill: #555555; stroke: #555555; stroke-width: 0.8"/>
      </g>
     </g>
     <g id="text_11">
      <!-- 1 -->
      <g style="fill: #555555" transform="translate(28.54 475.06986) scale(0.12 -0.12)">
       <use xlink:href="#DejaVuSans-31"/>
      </g>
     </g>
    </g>
    <g id="ytick_2">
     <g id="line2d_21">
      <path d="M 43.175 408.349322 
L 997.2 408.349322 
" clip-path="url(#p8ec43f6dce)" style="fill: none; stroke-dasharray: 2.22,0.96; stroke-dashoffset: 0; stroke: #ffffff; stroke-opacity: 0.7; stroke-width: 0.6"/>
     </g>
     <g id="line2d_22">
      <g>
       <use xlink:href="#m7bd29f4cea" x="43.175" y="408.349322" style="fill: #555555; stroke: #555555; stroke-width: 0.8"/>
      </g>
     </g>
     <g id="text_12">
      <!-- 2 -->
      <g style="fill: #555555" transform="translate(28.54 412.908384) scale(0.12 -0.12)">
       <use xlink:href="#DejaVuSans-32"/>
      </g>
     </g>
    </g>
    <g id="ytick_3">
     <g id="line2d_23">
      <path d="M 43.175 346.187847 
L 997.2 346.187847 
" clip-path="url(#p8ec43f6dce)" style="fill: none; stroke-dasharray: 2.22,0.96; stroke-dashoffset: 0; stroke: #ffffff; stroke-opacity: 0.7; stroke-width: 0.6"/>
     </g>
     <g id="line2d_24">
      <g>
       <use xlink:href="#m7bd29f4cea" x="43.175" y="346.187847" style="fill: #555555; stroke: #555555; stroke-width: 0.8"/>
      </g>
     </g>
     <g id="text_13">
      <!-- 3 -->
      <g style="fill: #555555" transform="translate(28.54 350.746909) scale(0.12 -0.12)">
       <use xlink:href="#DejaVuSans-33"/>
      </g>
     </g>
    </g>
    <g id="ytick_4">
     <g id="line2d_25">
      <path d="M 43.175 284.026371 
L 997.2 284.026371 
" clip-path="url(#p8ec43f6dce)" style="fill: none; stroke-dasharray: 2.22,0.96; stroke-dashoffset: 0; stroke: #ffffff; stroke-opacity: 0.7; stroke-width: 0.6"/>
     </g>
     <g id="line2d_26">
      <g>
       <use xlink:href="#m7bd29f4cea" x="43.175" y="284.026371" style="fill: #555555; stroke: #555555; stroke-width: 0.8"/>
      </g>
     </g>
     <g id="text_14">
      <!-- 4 -->
      <g style="fill: #555555" transform="translate(28.54 288.585434) scale(0.12 -0.12)">
       <use xlink:href="#DejaVuSans-34"/>
      </g>
     </g>
    </g>
    <g id="ytick_5">
     <g id="line2d_27">
      <path d="M 43.175 221.864896 
L 997.2 221.864896 
" clip-path="url(#p8ec43f6dce)" style="fill: none; stroke-dasharray: 2.22,0.96; stroke-dashoffset: 0; stroke: #ffffff; stroke-opacity: 0.7; stroke-width: 0.6"/>
     </g>
     <g id="line2d_28">
      <g>
       <use xlink:href="#m7bd29f4cea" x="43.175" y="221.864896" style="fill: #555555; stroke: #555555; stroke-width: 0.8"/>
      </g>
     </g>
     <g id="text_15">
      <!-- 5 -->
      <g style="fill: #555555" transform="translate(28.54 226.423959) scale(0.12 -0.12)">
       <use xlink:href="#DejaVuSans-35"/>
      </g>
     </g>
    </g>
    <g id="ytick_6">
     <g id="line2d_29">
      <path d="M 43.175 159.703421 
L 997.2 159.703421 
" clip-path="url(#p8ec43f6dce)" style="fill: none; stroke-dasharray: 2.22,0.96; stroke-dashoffset: 0; stroke: #ffffff; stroke-opacity: 0.7; stroke-width: 0.6"/>
     </g>
     <g id="line2d_30">
      <g>
       <use xlink:href="#m7bd29f4cea" x="43.175" y="159.703421" style="fill: #555555; stroke: #555555; stroke-width: 0.8"/>
      </g>
     </g>
     <g id="text_16">
      <!-- 6 -->
      <g style="fill: #555555" transform="translate(28.54 164.262483) scale(0.12 -0.12)">
       <use xlink:href="#DejaVuSans-36"/>
      </g>
     </g>
    </g>
    <g id="ytick_7">
     <g id="line2d_31">
      <path d="M 43.175 97.541946 
L 997.2 97.541946 
" clip-path="url(#p8ec43f6dce)" style="fill: none; stroke-dasharray: 2.22,0.96; stroke-dashoffset: 0; stroke: #ffffff; stroke-opacity: 0.7; stroke-width: 0.6"/>
     </g>
     <g id="line2d_32">
      <g>
       <use xlink:href="#m7bd29f4cea" x="43.175" y="97.541946" style="fill: #555555; stroke: #555555; stroke-width: 0.8"/>
      </g>
     </g>
     <g id="text_17">
      <!-- 7 -->
      <g style="fill: #555555" transform="translate(28.54 102.101008) scale(0.12 -0.12)">
       <use xlink:href="#DejaVuSans-37"/>
      </g>
     </g>
    </g>
    <g id="ytick_8">
     <g id="line2d_33">
      <path d="M 43.175 35.38047 
L 997.2 35.38047 
" clip-path="url(#p8ec43f6dce)" style="fill: none; stroke-dasharray: 2.22,0.96; stroke-dashoffset: 0; stroke: #ffffff; stroke-opacity: 0.7; stroke-width: 0.6"/>
     </g>
     <g id="line2d_34">
      <g>
       <use xlink:href="#m7bd29f4cea" x="43.175" y="35.38047" style="fill: #555555; stroke: #555555; stroke-width: 0.8"/>
      </g>
     </g>
     <g id="text_18">
      <!-- 8 -->
      <g style="fill: #555555" transform="translate(28.54 39.939533) scale(0.12 -0.12)">
       <defs>
        <path id="DejaVuSans-38" d="M 2034 2216 
Q 1584 2216 1326 1975 
Q 1069 1734 1069 1313 
Q 1069 891 1326 650 
Q 1584 409 2034 409 
Q 2484 409 2743 651 
Q 3003 894 3003 1313 
Q 3003 1734 2745 1975 
Q 2488 2216 2034 2216 
z
M 1403 2484 
Q 997 2584 770 2862 
Q 544 3141 544 3541 
Q 544 4100 942 4425 
Q 1341 4750 2034 4750 
Q 2731 4750 3128 4425 
Q 3525 4100 3525 3541 
Q 3525 3141 3298 2862 
Q 3072 2584 2669 2484 
Q 3125 2378 3379 2068 
Q 3634 1759 3634 1313 
Q 3634 634 3220 271 
Q 2806 -91 2034 -91 
Q 1263 -91 848 271 
Q 434 634 434 1313 
Q 434 1759 690 2068 
Q 947 2378 1403 2484 
z
M 1172 3481 
Q 1172 3119 1398 2916 
Q 1625 2713 2034 2713 
Q 2441 2713 2670 2916 
Q 2900 3119 2900 3481 
Q 2900 3844 2670 4047 
Q 2441 4250 2034 4250 
Q 1625 4250 1398 4047 
Q 1172 3844 1172 3481 
z
" transform="scale(0.015625)"/>
       </defs>
       <use xlink:href="#DejaVuSans-38"/>
      </g>
     </g>
    </g>
    <g id="text_19">
     <!-- Arbeitslosenquote (%) -->
     <g style="fill: #555555" transform="translate(21.628437 347.652357) rotate(-90) scale(0.14 -0.14)">
      <defs>
       <path id="DejaVuSans-41" d="M 2188 4044 
L 1331 1722 
L 3047 1722 
L 2188 4044 
z
M 1831 4666 
L 2547 4666 
L 4325 0 
L 3669 0 
L 3244 1197 
L 1141 1197 
L 716 0 
L 50 0 
L 1831 4666 
z
" transform="scale(0.015625)"/>
       <path id="DejaVuSans-62" d="M 3116 1747 
Q 3116 2381 2855 2742 
Q 2594 3103 2138 3103 
Q 1681 3103 1420 2742 
Q 1159 2381 1159 1747 
Q 1159 1113 1420 752 
Q 1681 391 2138 391 
Q 2594 391 2855 752 
Q 3116 1113 3116 1747 
z
M 1159 2969 
Q 1341 3281 1617 3432 
Q 1894 3584 2278 3584 
Q 2916 3584 3314 3078 
Q 3713 2572 3713 1747 
Q 3713 922 3314 415 
Q 2916 -91 2278 -91 
Q 1894 -91 1617 61 
Q 1341 213 1159 525 
L 1159 0 
L 581 0 
L 581 4863 
L 1159 4863 
L 1159 2969 
z
" transform="scale(0.015625)"/>
       <path id="DejaVuSans-69" d="M 603 3500 
L 1178 3500 
L 1178 0 
L 603 0 
L 603 3500 
z
M 603 4863 
L 1178 4863 
L 1178 4134 
L 603 4134 
L 603 4863 
z
" transform="scale(0.015625)"/>
       <path id="DejaVuSans-74" d="M 1172 4494 
L 1172 3500 
L 2356 3500 
L 2356 3053 
L 1172 3053 
L 1172 1153 
Q 1172 725 1289 603 
Q 1406 481 1766 481 
L 2356 481 
L 2356 0 
L 1766 0 
Q 1100 0 847 248 
Q 594 497 594 1153 
L 594 3053 
L 172 3053 
L 172 3500 
L 594 3500 
L 594 4494 
L 1172 4494 
z
" transform="scale(0.015625)"/>
       <path id="DejaVuSans-73" d="M 2834 3397 
L 2834 2853 
Q 2591 2978 2328 3040 
Q 2066 3103 1784 3103 
Q 1356 3103 1142 2972 
Q 928 2841 928 2578 
Q 928 2378 1081 2264 
Q 1234 2150 1697 2047 
L 1894 2003 
Q 2506 1872 2764 1633 
Q 3022 1394 3022 966 
Q 3022 478 2636 193 
Q 2250 -91 1575 -91 
Q 1294 -91 989 -36 
Q 684 19 347 128 
L 347 722 
Q 666 556 975 473 
Q 1284 391 1588 391 
Q 1994 391 2212 530 
Q 2431 669 2431 922 
Q 2431 1156 2273 1281 
Q 2116 1406 1581 1522 
L 1381 1569 
Q 847 1681 609 1914 
Q 372 2147 372 2553 
Q 372 3047 722 3315 
Q 1072 3584 1716 3584 
Q 2034 3584 2315 3537 
Q 2597 3491 2834 3397 
z
" transform="scale(0.015625)"/>
       <path id="DejaVuSans-6c" d="M 603 4863 
L 1178 4863 
L 1178 0 
L 603 0 
L 603 4863 
z
" transform="scale(0.015625)"/>
       <path id="DejaVuSans-6f" d="M 1959 3097 
Q 1497 3097 1228 2736 
Q 959 2375 959 1747 
Q 959 1119 1226 758 
Q 1494 397 1959 397 
Q 2419 397 2687 759 
Q 2956 1122 2956 1747 
Q 2956 2369 2687 2733 
Q 2419 3097 1959 3097 
z
M 1959 3584 
Q 2709 3584 3137 3096 
Q 3566 2609 3566 1747 
Q 3566 888 3137 398 
Q 2709 -91 1959 -91 
Q 1206 -91 779 398 
Q 353 888 353 1747 
Q 353 2609 779 3096 
Q 1206 3584 1959 3584 
z
" transform="scale(0.015625)"/>
       <path id="DejaVuSans-6e" d="M 3513 2113 
L 3513 0 
L 2938 0 
L 2938 2094 
Q 2938 2591 2744 2837 
Q 2550 3084 2163 3084 
Q 1697 3084 1428 2787 
Q 1159 2491 1159 1978 
L 1159 0 
L 581 0 
L 581 3500 
L 1159 3500 
L 1159 2956 
Q 1366 3272 1645 3428 
Q 1925 3584 2291 3584 
Q 2894 3584 3203 3211 
Q 3513 2838 3513 2113 
z
" transform="scale(0.015625)"/>
       <path id="DejaVuSans-71" d="M 947 1747 
Q 947 1113 1208 752 
Q 1469 391 1925 391 
Q 2381 391 2643 752 
Q 2906 1113 2906 1747 
Q 2906 2381 2643 2742 
Q 2381 3103 1925 3103 
Q 1469 3103 1208 2742 
Q 947 2381 947 1747 
z
M 2906 525 
Q 2725 213 2448 61 
Q 2172 -91 1784 -91 
Q 1150 -91 751 415 
Q 353 922 353 1747 
Q 353 2572 751 3078 
Q 1150 3584 1784 3584 
Q 2172 3584 2448 3432 
Q 2725 3281 2906 2969 
L 2906 3500 
L 3481 3500 
L 3481 -1331 
L 2906 -1331 
L 2906 525 
z
" transform="scale(0.015625)"/>
       <path id="DejaVuSans-75" d="M 544 1381 
L 544 3500 
L 1119 3500 
L 1119 1403 
Q 1119 906 1312 657 
Q 1506 409 1894 409 
Q 2359 409 2629 706 
Q 2900 1003 2900 1516 
L 2900 3500 
L 3475 3500 
L 3475 0 
L 2900 0 
L 2900 538 
Q 2691 219 2414 64 
Q 2138 -91 1772 -91 
Q 1169 -91 856 284 
Q 544 659 544 1381 
z
M 1991 3584 
L 1991 3584 
z
" transform="scale(0.015625)"/>
       <path id="DejaVuSans-20" transform="scale(0.015625)"/>
       <path id="DejaVuSans-28" d="M 1984 4856 
Q 1566 4138 1362 3434 
Q 1159 2731 1159 2009 
Q 1159 1288 1364 580 
Q 1569 -128 1984 -844 
L 1484 -844 
Q 1016 -109 783 600 
Q 550 1309 550 2009 
Q 550 2706 781 3412 
Q 1013 4119 1484 4856 
L 1984 4856 
z
" transform="scale(0.015625)"/>
       <path id="DejaVuSans-25" d="M 4653 2053 
Q 4381 2053 4226 1822 
Q 4072 1591 4072 1178 
Q 4072 772 4226 539 
Q 4381 306 4653 306 
Q 4919 306 5073 539 
Q 5228 772 5228 1178 
Q 5228 1588 5073 1820 
Q 4919 2053 4653 2053 
z
M 4653 2450 
Q 5147 2450 5437 2106 
Q 5728 1763 5728 1178 
Q 5728 594 5436 251 
Q 5144 -91 4653 -91 
Q 4153 -91 3862 251 
Q 3572 594 3572 1178 
Q 3572 1766 3864 2108 
Q 4156 2450 4653 2450 
z
M 1428 4353 
Q 1159 4353 1004 4120 
Q 850 3888 850 3481 
Q 850 3069 1003 2837 
Q 1156 2606 1428 2606 
Q 1700 2606 1854 2837 
Q 2009 3069 2009 3481 
Q 2009 3884 1853 4118 
Q 1697 4353 1428 4353 
z
M 4250 4750 
L 4750 4750 
L 1831 -91 
L 1331 -91 
L 4250 4750 
z
M 1428 4750 
Q 1922 4750 2215 4408 
Q 2509 4066 2509 3481 
Q 2509 2891 2217 2550 
Q 1925 2209 1428 2209 
Q 931 2209 642 2551 
Q 353 2894 353 3481 
Q 353 4063 643 4406 
Q 934 4750 1428 4750 
z
" transform="scale(0.015625)"/>
       <path id="DejaVuSans-29" d="M 513 4856 
L 1013 4856 
Q 1481 4119 1714 3412 
Q 1947 2706 1947 2009 
Q 1947 1309 1714 600 
Q 1481 -109 1013 -844 
L 513 -844 
Q 928 -128 1133 580 
Q 1338 1288 1338 2009 
Q 1338 2731 1133 3434 
Q 928 4138 513 4856 
z
" transform="scale(0.015625)"/>
      </defs>
      <use xlink:href="#DejaVuSans-41"/>
      <use xlink:href="#DejaVuSans-72" x="68.408203"/>
      <use xlink:href="#DejaVuSans-62" x="109.521484"/>
      <use xlink:href="#DejaVuSans-65" x="172.998047"/>
      <use xlink:href="#DejaVuSans-69" x="234.521484"/>
      <use xlink:href="#DejaVuSans-74" x="262.304688"/>
      <use xlink:href="#DejaVuSans-73" x="301.513672"/>
      <use xlink:href="#DejaVuSans-6c" x="353.613281"/>
      <use xlink:href="#DejaVuSans-6f" x="381.396484"/>
      <use xlink:href="#DejaVuSans-73" x="442.578125"/>
      <use xlink:href="#DejaVuSans-65" x="494.677734"/>
      <use xlink:href="#DejaVuSans-6e" x="556.201172"/>
      <use xlink:href="#DejaVuSans-71" x="619.580078"/>
      <use xlink:href="#DejaVuSans-75" x="683.056641"/>
      <use xlink:href="#DejaVuSans-6f" x="746.435547"/>
      <use xlink:href="#DejaVuSans-74" x="807.617188"/>
      <use xlink:href="#DejaVuSans-65" x="846.826172"/>
      <use xlink:href="#DejaVuSans-20" x="908.349609"/>
      <use xlink:href="#DejaVuSans-28" x="940.136719"/>
      <use xlink:href="#DejaVuSans-25" x="979.150391"/>
      <use xlink:href="#DejaVuSans-29" x="1074.169922"/>
     </g>
    </g>
   </g>
   <g id="line2d_35">
    <path d="M 86.539773 307.647732 
L 194.951705 50.920839 
L 303.363636 166.541183 
L 411.775568 277.188609 
L 520.1875 297.080281 
L 628.599432 264.756314 
L 737.011364 327.539404 
L 845.423295 317.593568 
L 953.835227 364.214675 
" clip-path="url(#p8ec43f6dce)" style="fill: none; stroke: #e24a33; stroke-width: 2; stroke-linecap: square"/>
    <defs>
     <path id="m659c0bb5fd" d="M 0 4 
C 1.060812 4 2.078319 3.578535 2.828427 2.828427 
C 3.578535 2.078319 4 1.060812 4 0 
C 4 -1.060812 3.578535 -2.078319 2.828427 -2.828427 
C 2.078319 -3.578535 1.060812 -4 0 -4 
C -1.060812 -4 -2.078319 -3.578535 -2.828427 -2.828427 
C -3.578535 -2.078319 -4 -1.060812 -4 0 
C -4 1.060812 -3.578535 2.078319 -2.828427 2.828427 
C -2.078319 3.578535 -1.060812 4 0 4 
z
"/>
    </defs>
    <g clip-path="url(#p8ec43f6dce)">
     <use xlink:href="#m659c0bb5fd" x="86.539773" y="307.647732" style="fill: #e24a33"/>
     <use xlink:href="#m659c0bb5fd" x="194.951705" y="50.920839" style="fill: #e24a33"/>
     <use xlink:href="#m659c0bb5fd" x="303.363636" y="166.541183" style="fill: #e24a33"/>
     <use xlink:href="#m659c0bb5fd" x="411.775568" y="277.188609" style="fill: #e24a33"/>
     <use xlink:href="#m659c0bb5fd" x="520.1875" y="297.080281" style="fill: #e24a33"/>
     <use xlink:href="#m659c0bb5fd" x="628.599432" y="264.756314" style="fill: #e24a33"/>
     <use xlink:href="#m659c0bb5fd" x="737.011364" y="327.539404" style="fill: #e24a33"/>
     <use xlink:href="#m659c0bb5fd" x="845.423295" y="317.593568" style="fill: #e24a33"/>
     <use xlink:href="#m659c0bb5fd" x="953.835227" y="364.214675" style="fill: #e24a33"/>
    </g>
   </g>
   <g id="line2d_36">
    <path d="M 86.539773 211.91906 
L 194.951705 212.540675 
L 303.363636 310.134191 
L 411.775568 297.080281 
L 520.1875 264.756314 
L 628.599432 212.540675 
L 737.011364 256.675322 
L 845.423295 262.269855 
L 953.835227 282.783142 
" clip-path="url(#p8ec43f6dce)" style="fill: none; stroke: #348abd; stroke-width: 2; stroke-linecap: square"/>
    <defs>
     <path id="m94cec1bee3" d="M 0 4 
C 1.060812 4 2.078319 3.578535 2.828427 2.828427 
C 3.578535 2.078319 4 1.060812 4 0 
C 4 -1.060812 3.578535 -2.078319 2.828427 -2.828427 
C 2.078319 -3.578535 1.060812 -4 0 -4 
C -1.060812 -4 -2.078319 -3.578535 -2.828427 -2.828427 
C -3.578535 -2.078319 -4 -1.060812 -4 0 
C -4 1.060812 -3.578535 2.078319 -2.828427 2.828427 
C -2.078319 3.578535 -1.060812 4 0 4 
z
"/>
    </defs>
    <g clip-path="url(#p8ec43f6dce)">
     <use xlink:href="#m94cec1bee3" x="86.539773" y="211.91906" style="fill: #348abd"/>
     <use xlink:href="#m94cec1bee3" x="194.951705" y="212.540675" style="fill: #348abd"/>
     <use xlink:href="#m94cec1bee3" x="303.363636" y="310.134191" style="fill: #348abd"/>
     <use xlink:href="#m94cec1bee3" x="411.775568" y="297.080281" style="fill: #348abd"/>
     <use xlink:href="#m94cec1bee3" x="520.1875" y="264.756314" style="fill: #348abd"/>
     <use xlink:href="#m94cec1bee3" x="628.599432" y="212.540675" style="fill: #348abd"/>
     <use xlink:href="#m94cec1bee3" x="737.011364" y="256.675322" style="fill: #348abd"/>
     <use xlink:href="#m94cec1bee3" x="845.423295" y="262.269855" style="fill: #348abd"/>
     <use xlink:href="#m94cec1bee3" x="953.835227" y="282.783142" style="fill: #348abd"/>
    </g>
   </g>
   <g id="line2d_37">
    <path d="M 86.539773 166.541183 
L 194.951705 322.566486 
L 303.363636 267.242773 
L 411.775568 275.94538 
L 520.1875 290.864134 
L 628.599432 254.188863 
L 737.011364 297.701896 
L 845.423295 344.323002 
L 953.835227 262.89147 
" clip-path="url(#p8ec43f6dce)" style="fill: none; stroke: #988ed5; stroke-width: 2; stroke-linecap: square"/>
    <defs>
     <path id="m5f5f7d5ec2" d="M 0 4 
C 1.060812 4 2.078319 3.578535 2.828427 2.828427 
C 3.578535 2.078319 4 1.060812 4 0 
C 4 -1.060812 3.578535 -2.078319 2.828427 -2.828427 
C 2.078319 -3.578535 1.060812 -4 0 -4 
C -1.060812 -4 -2.078319 -3.578535 -2.828427 -2.828427 
C -3.578535 -2.078319 -4 -1.060812 -4 0 
C -4 1.060812 -3.578535 2.078319 -2.828427 2.828427 
C -2.078319 3.578535 -1.060812 4 0 4 
z
"/>
    </defs>
    <g clip-path="url(#p8ec43f6dce)">
     <use xlink:href="#m5f5f7d5ec2" x="86.539773" y="166.541183" style="fill: #988ed5"/>
     <use xlink:href="#m5f5f7d5ec2" x="194.951705" y="322.566486" style="fill: #988ed5"/>
     <use xlink:href="#m5f5f7d5ec2" x="303.363636" y="267.242773" style="fill: #988ed5"/>
     <use xlink:href="#m5f5f7d5ec2" x="411.775568" y="275.94538" style="fill: #988ed5"/>
     <use xlink:href="#m5f5f7d5ec2" x="520.1875" y="290.864134" style="fill: #988ed5"/>
     <use xlink:href="#m5f5f7d5ec2" x="628.599432" y="254.188863" style="fill: #988ed5"/>
     <use xlink:href="#m5f5f7d5ec2" x="737.011364" y="297.701896" style="fill: #988ed5"/>
     <use xlink:href="#m5f5f7d5ec2" x="845.423295" y="344.323002" style="fill: #988ed5"/>
     <use xlink:href="#m5f5f7d5ec2" x="953.835227" y="262.89147" style="fill: #988ed5"/>
    </g>
   </g>
   <g id="line2d_38">
    <path d="M 86.539773 305.161273 
M 520.1875 305.782888 
L 628.599432 359.863371 
L 737.011364 399.025101 
L 845.423295 358.620142 
L 953.835227 361.728216 
" clip-path="url(#p8ec43f6dce)" style="fill: none; stroke: #777777; stroke-width: 2; stroke-linecap: square"/>
    <defs>
     <path id="m77cb0f9fe0" d="M 0 4 
C 1.060812 4 2.078319 3.578535 2.828427 2.828427 
C 3.578535 2.078319 4 1.060812 4 0 
C 4 -1.060812 3.578535 -2.078319 2.828427 -2.828427 
C 2.078319 -3.578535 1.060812 -4 0 -4 
C -1.060812 -4 -2.078319 -3.578535 -2.828427 -2.828427 
C -3.578535 -2.078319 -4 -1.060812 -4 0 
C -4 1.060812 -3.578535 2.078319 -2.828427 2.828427 
C -2.078319 3.578535 -1.060812 4 0 4 
z
"/>
    </defs>
    <g clip-path="url(#p8ec43f6dce)">
     <use xlink:href="#m77cb0f9fe0" x="86.539773" y="305.161273" style="fill: #777777"/>
     <use xlink:href="#m77cb0f9fe0" x="520.1875" y="305.782888" style="fill: #777777"/>
     <use xlink:href="#m77cb0f9fe0" x="628.599432" y="359.863371" style="fill: #777777"/>
     <use xlink:href="#m77cb0f9fe0" x="737.011364" y="399.025101" style="fill: #777777"/>
     <use xlink:href="#m77cb0f9fe0" x="845.423295" y="358.620142" style="fill: #777777"/>
     <use xlink:href="#m77cb0f9fe0" x="953.835227" y="361.728216" style="fill: #777777"/>
    </g>
   </g>
   <g id="line2d_39">
    <path d="M 86.539773 323.188101 
L 194.951705 318.215183 
L 303.363636 334.998781 
L 411.775568 324.43133 
L 520.1875 372.295666 
L 628.599432 366.701134 
L 737.011364 343.701388 
L 845.423295 413.32224 
L 953.835227 380.376658 
" clip-path="url(#p8ec43f6dce)" style="fill: none; stroke: #fbc15e; stroke-width: 2; stroke-linecap: square"/>
    <defs>
     <path id="m05ce2b9cd0" d="M 0 4 
C 1.060812 4 2.078319 3.578535 2.828427 2.828427 
C 3.578535 2.078319 4 1.060812 4 0 
C 4 -1.060812 3.578535 -2.078319 2.828427 -2.828427 
C 2.078319 -3.578535 1.060812 -4 0 -4 
C -1.060812 -4 -2.078319 -3.578535 -2.828427 -2.828427 
C -3.578535 -2.078319 -4 -1.060812 -4 0 
C -4 1.060812 -3.578535 2.078319 -2.828427 2.828427 
C -2.078319 3.578535 -1.060812 4 0 4 
z
"/>
    </defs>
    <g clip-path="url(#p8ec43f6dce)">
     <use xlink:href="#m05ce2b9cd0" x="86.539773" y="323.188101" style="fill: #fbc15e"/>
     <use xlink:href="#m05ce2b9cd0" x="194.951705" y="318.215183" style="fill: #fbc15e"/>
     <use xlink:href="#m05ce2b9cd0" x="303.363636" y="334.998781" style="fill: #fbc15e"/>
     <use xlink:href="#m05ce2b9cd0" x="411.775568" y="324.43133" style="fill: #fbc15e"/>
     <use xlink:href="#m05ce2b9cd0" x="520.1875" y="372.295666" style="fill: #fbc15e"/>
     <use xlink:href="#m05ce2b9cd0" x="628.599432" y="366.701134" style="fill: #fbc15e"/>
     <use xlink:href="#m05ce2b9cd0" x="737.011364" y="343.701388" style="fill: #fbc15e"/>
     <use xlink:href="#m05ce2b9cd0" x="845.423295" y="413.32224" style="fill: #fbc15e"/>
     <use xlink:href="#m05ce2b9cd0" x="953.835227" y="380.376658" style="fill: #fbc15e"/>
    </g>
   </g>
   <g id="line2d_40">
    <path d="M 86.539773 433.213912 
L 194.951705 487.91601 
L 303.363636 488.537625 
L 411.775568 471.132412 
L 520.1875 482.321478 
L 628.599432 426.997765 
L 737.011364 444.402978 
L 845.423295 428.240994 
L 953.835227 456.835273 
" clip-path="url(#p8ec43f6dce)" style="fill: none; stroke: #8eba42; stroke-width: 2; stroke-linecap: square"/>
    <defs>
     <path id="m9e939868ea" d="M 0 4 
C 1.060812 4 2.078319 3.578535 2.828427 2.828427 
C 3.578535 2.078319 4 1.060812 4 0 
C 4 -1.060812 3.578535 -2.078319 2.828427 -2.828427 
C 2.078319 -3.578535 1.060812 -4 0 -4 
C -1.060812 -4 -2.078319 -3.578535 -2.828427 -2.828427 
C -3.578535 -2.078319 -4 -1.060812 -4 0 
C -4 1.060812 -3.578535 2.078319 -2.828427 2.828427 
C -2.078319 3.578535 -1.060812 4 0 4 
z
"/>
    </defs>
    <g clip-path="url(#p8ec43f6dce)">
     <use xlink:href="#m9e939868ea" x="86.539773" y="433.213912" style="fill: #8eba42"/>
     <use xlink:href="#m9e939868ea" x="194.951705" y="487.91601" style="fill: #8eba42"/>
     <use xlink:href="#m9e939868ea" x="303.363636" y="488.537625" style="fill: #8eba42"/>
     <use xlink:href="#m9e939868ea" x="411.775568" y="471.132412" style="fill: #8eba42"/>
     <use xlink:href="#m9e939868ea" x="520.1875" y="482.321478" style="fill: #8eba42"/>
     <use xlink:href="#m9e939868ea" x="628.599432" y="426.997765" style="fill: #8eba42"/>
     <use xlink:href="#m9e939868ea" x="737.011364" y="444.402978" style="fill: #8eba42"/>
     <use xlink:href="#m9e939868ea" x="845.423295" y="428.240994" style="fill: #8eba42"/>
     <use xlink:href="#m9e939868ea" x="953.835227" y="456.835273" style="fill: #8eba42"/>
    </g>
   </g>
   <g id="patch_3">
    <path d="M 43.175 510.418464 
L 43.175 29.04 
" style="fill: none; stroke: #ffffff; stroke-linejoin: miter; stroke-linecap: square"/>
   </g>
   <g id="patch_4">
    <path d="M 43.175 510.418464 
L 997.2 510.418464 
" style="fill: none; stroke: #ffffff; stroke-linejoin: miter; stroke-linecap: square"/>
   </g>
   <g id="text_20">
    <!-- Arbeitslosenquote in verschiedenen Stadtteilen von Ingolstadt (2009-2017) -->
    <g style="fill: #333333" transform="translate(178.08375 23.04) scale(0.16 -0.16)">
     <defs>
      <path id="DejaVuSans-Bold-41" d="M 3419 850 
L 1538 850 
L 1241 0 
L 31 0 
L 1759 4666 
L 3194 4666 
L 4922 0 
L 3713 0 
L 3419 850 
z
M 1838 1716 
L 3116 1716 
L 2478 3572 
L 1838 1716 
z
" transform="scale(0.015625)"/>
      <path id="DejaVuSans-Bold-72" d="M 3138 2547 
Q 2991 2616 2845 2648 
Q 2700 2681 2553 2681 
Q 2122 2681 1889 2404 
Q 1656 2128 1656 1613 
L 1656 0 
L 538 0 
L 538 3500 
L 1656 3500 
L 1656 2925 
Q 1872 3269 2151 3426 
Q 2431 3584 2822 3584 
Q 2878 3584 2943 3579 
Q 3009 3575 3134 3559 
L 3138 2547 
z
" transform="scale(0.015625)"/>
      <path id="DejaVuSans-Bold-62" d="M 2400 722 
Q 2759 722 2948 984 
Q 3138 1247 3138 1747 
Q 3138 2247 2948 2509 
Q 2759 2772 2400 2772 
Q 2041 2772 1848 2508 
Q 1656 2244 1656 1747 
Q 1656 1250 1848 986 
Q 2041 722 2400 722 
z
M 1656 2988 
Q 1888 3294 2169 3439 
Q 2450 3584 2816 3584 
Q 3463 3584 3878 3070 
Q 4294 2556 4294 1747 
Q 4294 938 3878 423 
Q 3463 -91 2816 -91 
Q 2450 -91 2169 54 
Q 1888 200 1656 506 
L 1656 0 
L 538 0 
L 538 4863 
L 1656 4863 
L 1656 2988 
z
" transform="scale(0.015625)"/>
      <path id="DejaVuSans-Bold-65" d="M 4031 1759 
L 4031 1441 
L 1416 1441 
Q 1456 1047 1700 850 
Q 1944 653 2381 653 
Q 2734 653 3104 758 
Q 3475 863 3866 1075 
L 3866 213 
Q 3469 63 3072 -14 
Q 2675 -91 2278 -91 
Q 1328 -91 801 392 
Q 275 875 275 1747 
Q 275 2603 792 3093 
Q 1309 3584 2216 3584 
Q 3041 3584 3536 3087 
Q 4031 2591 4031 1759 
z
M 2881 2131 
Q 2881 2450 2695 2645 
Q 2509 2841 2209 2841 
Q 1884 2841 1681 2658 
Q 1478 2475 1428 2131 
L 2881 2131 
z
" transform="scale(0.015625)"/>
      <path id="DejaVuSans-Bold-69" d="M 538 3500 
L 1656 3500 
L 1656 0 
L 538 0 
L 538 3500 
z
M 538 4863 
L 1656 4863 
L 1656 3950 
L 538 3950 
L 538 4863 
z
" transform="scale(0.015625)"/>
      <path id="DejaVuSans-Bold-74" d="M 1759 4494 
L 1759 3500 
L 2913 3500 
L 2913 2700 
L 1759 2700 
L 1759 1216 
Q 1759 972 1856 886 
Q 1953 800 2241 800 
L 2816 800 
L 2816 0 
L 1856 0 
Q 1194 0 917 276 
Q 641 553 641 1216 
L 641 2700 
L 84 2700 
L 84 3500 
L 641 3500 
L 641 4494 
L 1759 4494 
z
" transform="scale(0.015625)"/>
      <path id="DejaVuSans-Bold-73" d="M 3272 3391 
L 3272 2541 
Q 2913 2691 2578 2766 
Q 2244 2841 1947 2841 
Q 1628 2841 1473 2761 
Q 1319 2681 1319 2516 
Q 1319 2381 1436 2309 
Q 1553 2238 1856 2203 
L 2053 2175 
Q 2913 2066 3209 1816 
Q 3506 1566 3506 1031 
Q 3506 472 3093 190 
Q 2681 -91 1863 -91 
Q 1516 -91 1145 -36 
Q 775 19 384 128 
L 384 978 
Q 719 816 1070 734 
Q 1422 653 1784 653 
Q 2113 653 2278 743 
Q 2444 834 2444 1013 
Q 2444 1163 2330 1236 
Q 2216 1309 1875 1350 
L 1678 1375 
Q 931 1469 631 1722 
Q 331 1975 331 2491 
Q 331 3047 712 3315 
Q 1094 3584 1881 3584 
Q 2191 3584 2531 3537 
Q 2872 3491 3272 3391 
z
" transform="scale(0.015625)"/>
      <path id="DejaVuSans-Bold-6c" d="M 538 4863 
L 1656 4863 
L 1656 0 
L 538 0 
L 538 4863 
z
" transform="scale(0.015625)"/>
      <path id="DejaVuSans-Bold-6f" d="M 2203 2784 
Q 1831 2784 1636 2517 
Q 1441 2250 1441 1747 
Q 1441 1244 1636 976 
Q 1831 709 2203 709 
Q 2569 709 2762 976 
Q 2956 1244 2956 1747 
Q 2956 2250 2762 2517 
Q 2569 2784 2203 2784 
z
M 2203 3584 
Q 3106 3584 3614 3096 
Q 4122 2609 4122 1747 
Q 4122 884 3614 396 
Q 3106 -91 2203 -91 
Q 1297 -91 786 396 
Q 275 884 275 1747 
Q 275 2609 786 3096 
Q 1297 3584 2203 3584 
z
" transform="scale(0.015625)"/>
      <path id="DejaVuSans-Bold-6e" d="M 4056 2131 
L 4056 0 
L 2931 0 
L 2931 347 
L 2931 1631 
Q 2931 2084 2911 2256 
Q 2891 2428 2841 2509 
Q 2775 2619 2662 2680 
Q 2550 2741 2406 2741 
Q 2056 2741 1856 2470 
Q 1656 2200 1656 1722 
L 1656 0 
L 538 0 
L 538 3500 
L 1656 3500 
L 1656 2988 
Q 1909 3294 2193 3439 
Q 2478 3584 2822 3584 
Q 3428 3584 3742 3212 
Q 4056 2841 4056 2131 
z
" transform="scale(0.015625)"/>
      <path id="DejaVuSans-Bold-71" d="M 2181 2772 
Q 1825 2772 1636 2509 
Q 1447 2247 1447 1747 
Q 1447 1247 1636 984 
Q 1825 722 2181 722 
Q 2541 722 2730 984 
Q 2919 1247 2919 1747 
Q 2919 2247 2730 2509 
Q 2541 2772 2181 2772 
z
M 2919 506 
Q 2688 197 2409 53 
Q 2131 -91 1766 -91 
Q 1119 -91 703 423 
Q 288 938 288 1747 
Q 288 2556 703 3067 
Q 1119 3578 1766 3578 
Q 2131 3578 2409 3434 
Q 2688 3291 2919 2981 
L 2919 3500 
L 4044 3500 
L 4044 -1331 
L 2919 -1331 
L 2919 506 
z
" transform="scale(0.015625)"/>
      <path id="DejaVuSans-Bold-75" d="M 500 1363 
L 500 3500 
L 1625 3500 
L 1625 3150 
Q 1625 2866 1622 2436 
Q 1619 2006 1619 1863 
Q 1619 1441 1641 1255 
Q 1663 1069 1716 984 
Q 1784 875 1895 815 
Q 2006 756 2150 756 
Q 2500 756 2700 1025 
Q 2900 1294 2900 1772 
L 2900 3500 
L 4019 3500 
L 4019 0 
L 2900 0 
L 2900 506 
Q 2647 200 2364 54 
Q 2081 -91 1741 -91 
Q 1134 -91 817 281 
Q 500 653 500 1363 
z
" transform="scale(0.015625)"/>
      <path id="DejaVuSans-Bold-20" transform="scale(0.015625)"/>
      <path id="DejaVuSans-Bold-76" d="M 97 3500 
L 1216 3500 
L 2088 1081 
L 2956 3500 
L 4078 3500 
L 2700 0 
L 1472 0 
L 97 3500 
z
" transform="scale(0.015625)"/>
      <path id="DejaVuSans-Bold-63" d="M 3366 3391 
L 3366 2478 
Q 3138 2634 2908 2709 
Q 2678 2784 2431 2784 
Q 1963 2784 1702 2511 
Q 1441 2238 1441 1747 
Q 1441 1256 1702 982 
Q 1963 709 2431 709 
Q 2694 709 2930 787 
Q 3166 866 3366 1019 
L 3366 103 
Q 3103 6 2833 -42 
Q 2563 -91 2291 -91 
Q 1344 -91 809 395 
Q 275 881 275 1747 
Q 275 2613 809 3098 
Q 1344 3584 2291 3584 
Q 2566 3584 2833 3536 
Q 3100 3488 3366 3391 
z
" transform="scale(0.015625)"/>
      <path id="DejaVuSans-Bold-68" d="M 4056 2131 
L 4056 0 
L 2931 0 
L 2931 347 
L 2931 1625 
Q 2931 2084 2911 2256 
Q 2891 2428 2841 2509 
Q 2775 2619 2662 2680 
Q 2550 2741 2406 2741 
Q 2056 2741 1856 2470 
Q 1656 2200 1656 1722 
L 1656 0 
L 538 0 
L 538 4863 
L 1656 4863 
L 1656 2988 
Q 1909 3294 2193 3439 
Q 2478 3584 2822 3584 
Q 3428 3584 3742 3212 
Q 4056 2841 4056 2131 
z
" transform="scale(0.015625)"/>
      <path id="DejaVuSans-Bold-64" d="M 2919 2988 
L 2919 4863 
L 4044 4863 
L 4044 0 
L 2919 0 
L 2919 506 
Q 2688 197 2409 53 
Q 2131 -91 1766 -91 
Q 1119 -91 703 423 
Q 288 938 288 1747 
Q 288 2556 703 3070 
Q 1119 3584 1766 3584 
Q 2128 3584 2408 3439 
Q 2688 3294 2919 2988 
z
M 2181 722 
Q 2541 722 2730 984 
Q 2919 1247 2919 1747 
Q 2919 2247 2730 2509 
Q 2541 2772 2181 2772 
Q 1825 2772 1636 2509 
Q 1447 2247 1447 1747 
Q 1447 1247 1636 984 
Q 1825 722 2181 722 
z
" transform="scale(0.015625)"/>
      <path id="DejaVuSans-Bold-53" d="M 3834 4519 
L 3834 3531 
Q 3450 3703 3084 3790 
Q 2719 3878 2394 3878 
Q 1963 3878 1756 3759 
Q 1550 3641 1550 3391 
Q 1550 3203 1689 3098 
Q 1828 2994 2194 2919 
L 2706 2816 
Q 3484 2659 3812 2340 
Q 4141 2022 4141 1434 
Q 4141 663 3683 286 
Q 3225 -91 2284 -91 
Q 1841 -91 1394 -6 
Q 947 78 500 244 
L 500 1259 
Q 947 1022 1364 901 
Q 1781 781 2169 781 
Q 2563 781 2772 912 
Q 2981 1044 2981 1288 
Q 2981 1506 2839 1625 
Q 2697 1744 2272 1838 
L 1806 1941 
Q 1106 2091 782 2419 
Q 459 2747 459 3303 
Q 459 4000 909 4375 
Q 1359 4750 2203 4750 
Q 2588 4750 2994 4692 
Q 3400 4634 3834 4519 
z
" transform="scale(0.015625)"/>
      <path id="DejaVuSans-Bold-61" d="M 2106 1575 
Q 1756 1575 1579 1456 
Q 1403 1338 1403 1106 
Q 1403 894 1545 773 
Q 1688 653 1941 653 
Q 2256 653 2472 879 
Q 2688 1106 2688 1447 
L 2688 1575 
L 2106 1575 
z
M 3816 1997 
L 3816 0 
L 2688 0 
L 2688 519 
Q 2463 200 2181 54 
Q 1900 -91 1497 -91 
Q 953 -91 614 226 
Q 275 544 275 1050 
Q 275 1666 698 1953 
Q 1122 2241 2028 2241 
L 2688 2241 
L 2688 2328 
Q 2688 2594 2478 2717 
Q 2269 2841 1825 2841 
Q 1466 2841 1156 2769 
Q 847 2697 581 2553 
L 581 3406 
Q 941 3494 1303 3539 
Q 1666 3584 2028 3584 
Q 2975 3584 3395 3211 
Q 3816 2838 3816 1997 
z
" transform="scale(0.015625)"/>
      <path id="DejaVuSans-Bold-49" d="M 588 4666 
L 1791 4666 
L 1791 0 
L 588 0 
L 588 4666 
z
" transform="scale(0.015625)"/>
      <path id="DejaVuSans-Bold-67" d="M 2919 594 
Q 2688 288 2409 144 
Q 2131 0 1766 0 
Q 1125 0 706 504 
Q 288 1009 288 1791 
Q 288 2575 706 3076 
Q 1125 3578 1766 3578 
Q 2131 3578 2409 3434 
Q 2688 3291 2919 2981 
L 2919 3500 
L 4044 3500 
L 4044 353 
Q 4044 -491 3511 -936 
Q 2978 -1381 1966 -1381 
Q 1638 -1381 1331 -1331 
Q 1025 -1281 716 -1178 
L 716 -306 
Q 1009 -475 1290 -558 
Q 1572 -641 1856 -641 
Q 2406 -641 2662 -400 
Q 2919 -159 2919 353 
L 2919 594 
z
M 2181 2772 
Q 1834 2772 1640 2515 
Q 1447 2259 1447 1791 
Q 1447 1309 1634 1061 
Q 1822 813 2181 813 
Q 2531 813 2725 1069 
Q 2919 1325 2919 1791 
Q 2919 2259 2725 2515 
Q 2531 2772 2181 2772 
z
" transform="scale(0.015625)"/>
      <path id="DejaVuSans-Bold-28" d="M 2413 -844 
L 1484 -844 
Q 1006 -72 778 623 
Q 550 1319 550 2003 
Q 550 2688 779 3389 
Q 1009 4091 1484 4856 
L 2413 4856 
Q 2013 4116 1813 3408 
Q 1613 2700 1613 2009 
Q 1613 1319 1811 609 
Q 2009 -100 2413 -844 
z
" transform="scale(0.015625)"/>
      <path id="DejaVuSans-Bold-32" d="M 1844 884 
L 3897 884 
L 3897 0 
L 506 0 
L 506 884 
L 2209 2388 
Q 2438 2594 2547 2791 
Q 2656 2988 2656 3200 
Q 2656 3528 2436 3728 
Q 2216 3928 1850 3928 
Q 1569 3928 1234 3808 
Q 900 3688 519 3450 
L 519 4475 
Q 925 4609 1322 4679 
Q 1719 4750 2100 4750 
Q 2938 4750 3402 4381 
Q 3866 4013 3866 3353 
Q 3866 2972 3669 2642 
Q 3472 2313 2841 1759 
L 1844 884 
z
" transform="scale(0.015625)"/>
      <path id="DejaVuSans-Bold-30" d="M 2944 2338 
Q 2944 3213 2780 3570 
Q 2616 3928 2228 3928 
Q 1841 3928 1675 3570 
Q 1509 3213 1509 2338 
Q 1509 1453 1675 1090 
Q 1841 728 2228 728 
Q 2613 728 2778 1090 
Q 2944 1453 2944 2338 
z
M 4147 2328 
Q 4147 1169 3647 539 
Q 3147 -91 2228 -91 
Q 1306 -91 806 539 
Q 306 1169 306 2328 
Q 306 3491 806 4120 
Q 1306 4750 2228 4750 
Q 3147 4750 3647 4120 
Q 4147 3491 4147 2328 
z
" transform="scale(0.015625)"/>
      <path id="DejaVuSans-Bold-39" d="M 641 103 
L 641 966 
Q 928 831 1190 764 
Q 1453 697 1709 697 
Q 2247 697 2547 995 
Q 2847 1294 2900 1881 
Q 2688 1725 2447 1647 
Q 2206 1569 1925 1569 
Q 1209 1569 770 1986 
Q 331 2403 331 3084 
Q 331 3838 820 4291 
Q 1309 4744 2131 4744 
Q 3044 4744 3544 4128 
Q 4044 3513 4044 2388 
Q 4044 1231 3459 570 
Q 2875 -91 1856 -91 
Q 1528 -91 1228 -42 
Q 928 6 641 103 
z
M 2125 2350 
Q 2441 2350 2600 2554 
Q 2759 2759 2759 3169 
Q 2759 3575 2600 3781 
Q 2441 3988 2125 3988 
Q 1809 3988 1650 3781 
Q 1491 3575 1491 3169 
Q 1491 2759 1650 2554 
Q 1809 2350 2125 2350 
z
" transform="scale(0.015625)"/>
      <path id="DejaVuSans-Bold-2d" d="M 347 2297 
L 2309 2297 
L 2309 1388 
L 347 1388 
L 347 2297 
z
" transform="scale(0.015625)"/>
      <path id="DejaVuSans-Bold-31" d="M 750 831 
L 1813 831 
L 1813 3847 
L 722 3622 
L 722 4441 
L 1806 4666 
L 2950 4666 
L 2950 831 
L 4013 831 
L 4013 0 
L 750 0 
L 750 831 
z
" transform="scale(0.015625)"/>
      <path id="DejaVuSans-Bold-37" d="M 428 4666 
L 3944 4666 
L 3944 3988 
L 2125 0 
L 953 0 
L 2675 3781 
L 428 3781 
L 428 4666 
z
" transform="scale(0.015625)"/>
      <path id="DejaVuSans-Bold-29" d="M 513 -844 
Q 913 -100 1113 609 
Q 1313 1319 1313 2009 
Q 1313 2700 1113 3408 
Q 913 4116 513 4856 
L 1441 4856 
Q 1916 4091 2145 3389 
Q 2375 2688 2375 2003 
Q 2375 1319 2147 623 
Q 1919 -72 1441 -844 
L 513 -844 
z
" transform="scale(0.015625)"/>
     </defs>
     <use xlink:href="#DejaVuSans-Bold-41"/>
     <use xlink:href="#DejaVuSans-Bold-72" x="77.392578"/>
     <use xlink:href="#DejaVuSans-Bold-62" x="126.708984"/>
     <use xlink:href="#DejaVuSans-Bold-65" x="198.291016"/>
     <use xlink:href="#DejaVuSans-Bold-69" x="266.113281"/>
     <use xlink:href="#DejaVuSans-Bold-74" x="300.390625"/>
     <use xlink:href="#DejaVuSans-Bold-73" x="348.193359"/>
     <use xlink:href="#DejaVuSans-Bold-6c" x="407.714844"/>
     <use xlink:href="#DejaVuSans-Bold-6f" x="441.992188"/>
     <use xlink:href="#DejaVuSans-Bold-73" x="510.693359"/>
     <use xlink:href="#DejaVuSans-Bold-65" x="570.214844"/>
     <use xlink:href="#DejaVuSans-Bold-6e" x="638.037109"/>
     <use xlink:href="#DejaVuSans-Bold-71" x="709.228516"/>
     <use xlink:href="#DejaVuSans-Bold-75" x="780.810547"/>
     <use xlink:href="#DejaVuSans-Bold-6f" x="852.001953"/>
     <use xlink:href="#DejaVuSans-Bold-74" x="920.703125"/>
     <use xlink:href="#DejaVuSans-Bold-65" x="968.505859"/>
     <use xlink:href="#DejaVuSans-Bold-20" x="1036.328125"/>
     <use xlink:href="#DejaVuSans-Bold-69" x="1071.142578"/>
     <use xlink:href="#DejaVuSans-Bold-6e" x="1105.419922"/>
     <use xlink:href="#DejaVuSans-Bold-20" x="1176.611328"/>
     <use xlink:href="#DejaVuSans-Bold-76" x="1211.425781"/>
     <use xlink:href="#DejaVuSans-Bold-65" x="1276.611328"/>
     <use xlink:href="#DejaVuSans-Bold-72" x="1344.433594"/>
     <use xlink:href="#DejaVuSans-Bold-73" x="1393.75"/>
     <use xlink:href="#DejaVuSans-Bold-63" x="1453.271484"/>
     <use xlink:href="#DejaVuSans-Bold-68" x="1512.548828"/>
     <use xlink:href="#DejaVuSans-Bold-69" x="1583.740234"/>
     <use xlink:href="#DejaVuSans-Bold-65" x="1618.017578"/>
     <use xlink:href="#DejaVuSans-Bold-64" x="1685.839844"/>
     <use xlink:href="#DejaVuSans-Bold-65" x="1757.421875"/>
     <use xlink:href="#DejaVuSans-Bold-6e" x="1825.244141"/>
     <use xlink:href="#DejaVuSans-Bold-65" x="1896.435547"/>
     <use xlink:href="#DejaVuSans-Bold-6e" x="1964.257812"/>
     <use xlink:href="#DejaVuSans-Bold-20" x="2035.449219"/>
     <use xlink:href="#DejaVuSans-Bold-53" x="2070.263672"/>
     <use xlink:href="#DejaVuSans-Bold-74" x="2142.285156"/>
     <use xlink:href="#DejaVuSans-Bold-61" x="2190.087891"/>
     <use xlink:href="#DejaVuSans-Bold-64" x="2257.568359"/>
     <use xlink:href="#DejaVuSans-Bold-74" x="2329.150391"/>
     <use xlink:href="#DejaVuSans-Bold-74" x="2376.953125"/>
     <use xlink:href="#DejaVuSans-Bold-65" x="2424.755859"/>
     <use xlink:href="#DejaVuSans-Bold-69" x="2492.578125"/>
     <use xlink:href="#DejaVuSans-Bold-6c" x="2526.855469"/>
     <use xlink:href="#DejaVuSans-Bold-65" x="2561.132812"/>
     <use xlink:href="#DejaVuSans-Bold-6e" x="2628.955078"/>
     <use xlink:href="#DejaVuSans-Bold-20" x="2700.146484"/>
     <use xlink:href="#DejaVuSans-Bold-76" x="2734.960938"/>
     <use xlink:href="#DejaVuSans-Bold-6f" x="2800.146484"/>
     <use xlink:href="#DejaVuSans-Bold-6e" x="2868.847656"/>
     <use xlink:href="#DejaVuSans-Bold-20" x="2940.039062"/>
     <use xlink:href="#DejaVuSans-Bold-49" x="2974.853516"/>
     <use xlink:href="#DejaVuSans-Bold-6e" x="3012.060547"/>
     <use xlink:href="#DejaVuSans-Bold-67" x="3083.251953"/>
     <use xlink:href="#DejaVuSans-Bold-6f" x="3154.833984"/>
     <use xlink:href="#DejaVuSans-Bold-6c" x="3223.535156"/>
     <use xlink:href="#DejaVuSans-Bold-73" x="3257.8125"/>
     <use xlink:href="#DejaVuSans-Bold-74" x="3317.333984"/>
     <use xlink:href="#DejaVuSans-Bold-61" x="3365.136719"/>
     <use xlink:href="#DejaVuSans-Bold-64" x="3432.617188"/>
     <use xlink:href="#DejaVuSans-Bold-74" x="3504.199219"/>
     <use xlink:href="#DejaVuSans-Bold-20" x="3552.001953"/>
     <use xlink:href="#DejaVuSans-Bold-28" x="3586.816406"/>
     <use xlink:href="#DejaVuSans-Bold-32" x="3632.519531"/>
     <use xlink:href="#DejaVuSans-Bold-30" x="3702.099609"/>
     <use xlink:href="#DejaVuSans-Bold-30" x="3771.679688"/>
     <use xlink:href="#DejaVuSans-Bold-39" x="3841.259766"/>
     <use xlink:href="#DejaVuSans-Bold-2d" x="3910.839844"/>
     <use xlink:href="#DejaVuSans-Bold-32" x="3952.34375"/>
     <use xlink:href="#DejaVuSans-Bold-30" x="4021.923828"/>
     <use xlink:href="#DejaVuSans-Bold-31" x="4091.503906"/>
     <use xlink:href="#DejaVuSans-Bold-37" x="4161.083984"/>
     <use xlink:href="#DejaVuSans-Bold-29" x="4230.664062"/>
    </g>
   </g>
   <g id="legend_1">
    <g id="patch_5">
     <path d="M 841.329375 160.000625 
L 988.8 160.000625 
Q 991.2 160.000625 991.2 157.600625 
L 991.2 37.44 
Q 991.2 35.04 988.8 35.04 
L 841.329375 35.04 
Q 838.929375 35.04 838.929375 37.44 
L 838.929375 157.600625 
Q 838.929375 160.000625 841.329375 160.000625 
z
" style="fill: #e5e5e5; opacity: 0.8; stroke: #cccccc; stroke-width: 0.5; stroke-linejoin: miter"/>
    </g>
    <g id="text_21">
     <!-- Stadtteile -->
     <g style="fill: #333333" transform="translate(890.840469 47.438437) scale(0.1 -0.1)">
      <defs>
       <path id="DejaVuSans-53" d="M 3425 4513 
L 3425 3897 
Q 3066 4069 2747 4153 
Q 2428 4238 2131 4238 
Q 1616 4238 1336 4038 
Q 1056 3838 1056 3469 
Q 1056 3159 1242 3001 
Q 1428 2844 1947 2747 
L 2328 2669 
Q 3034 2534 3370 2195 
Q 3706 1856 3706 1288 
Q 3706 609 3251 259 
Q 2797 -91 1919 -91 
Q 1588 -91 1214 -16 
Q 841 59 441 206 
L 441 856 
Q 825 641 1194 531 
Q 1563 422 1919 422 
Q 2459 422 2753 634 
Q 3047 847 3047 1241 
Q 3047 1584 2836 1778 
Q 2625 1972 2144 2069 
L 1759 2144 
Q 1053 2284 737 2584 
Q 422 2884 422 3419 
Q 422 4038 858 4394 
Q 1294 4750 2059 4750 
Q 2388 4750 2728 4690 
Q 3069 4631 3425 4513 
z
" transform="scale(0.015625)"/>
       <path id="DejaVuSans-64" d="M 2906 2969 
L 2906 4863 
L 3481 4863 
L 3481 0 
L 2906 0 
L 2906 525 
Q 2725 213 2448 61 
Q 2172 -91 1784 -91 
Q 1150 -91 751 415 
Q 353 922 353 1747 
Q 353 2572 751 3078 
Q 1150 3584 1784 3584 
Q 2172 3584 2448 3432 
Q 2725 3281 2906 2969 
z
M 947 1747 
Q 947 1113 1208 752 
Q 1469 391 1925 391 
Q 2381 391 2643 752 
Q 2906 1113 2906 1747 
Q 2906 2381 2643 2742 
Q 2381 3103 1925 3103 
Q 1469 3103 1208 2742 
Q 947 2381 947 1747 
z
" transform="scale(0.015625)"/>
      </defs>
      <use xlink:href="#DejaVuSans-53"/>
      <use xlink:href="#DejaVuSans-74" x="63.476562"/>
      <use xlink:href="#DejaVuSans-61" x="102.685547"/>
      <use xlink:href="#DejaVuSans-64" x="163.964844"/>
      <use xlink:href="#DejaVuSans-74" x="227.441406"/>
      <use xlink:href="#DejaVuSans-74" x="266.650391"/>
      <use xlink:href="#DejaVuSans-65" x="305.859375"/>
      <use xlink:href="#DejaVuSans-69" x="367.382812"/>
      <use xlink:href="#DejaVuSans-6c" x="395.166016"/>
      <use xlink:href="#DejaVuSans-65" x="422.949219"/>
     </g>
    </g>
    <g id="line2d_41">
     <path d="M 843.729375 60.43625 
L 855.729375 60.43625 
L 867.729375 60.43625 
" style="fill: none; stroke: #e24a33; stroke-width: 2; stroke-linecap: square"/>
     <g>
      <use xlink:href="#m659c0bb5fd" x="855.729375" y="60.43625" style="fill: #e24a33"/>
     </g>
    </g>
    <g id="text_22">
     <!-- Brueckenkopf -->
     <g style="fill: #333333" transform="translate(877.329375 64.63625) scale(0.12 -0.12)">
      <defs>
       <path id="DejaVuSans-42" d="M 1259 2228 
L 1259 519 
L 2272 519 
Q 2781 519 3026 730 
Q 3272 941 3272 1375 
Q 3272 1813 3026 2020 
Q 2781 2228 2272 2228 
L 1259 2228 
z
M 1259 4147 
L 1259 2741 
L 2194 2741 
Q 2656 2741 2882 2914 
Q 3109 3088 3109 3444 
Q 3109 3797 2882 3972 
Q 2656 4147 2194 4147 
L 1259 4147 
z
M 628 4666 
L 2241 4666 
Q 2963 4666 3353 4366 
Q 3744 4066 3744 3513 
Q 3744 3084 3544 2831 
Q 3344 2578 2956 2516 
Q 3422 2416 3680 2098 
Q 3938 1781 3938 1306 
Q 3938 681 3513 340 
Q 3088 0 2303 0 
L 628 0 
L 628 4666 
z
" transform="scale(0.015625)"/>
       <path id="DejaVuSans-63" d="M 3122 3366 
L 3122 2828 
Q 2878 2963 2633 3030 
Q 2388 3097 2138 3097 
Q 1578 3097 1268 2742 
Q 959 2388 959 1747 
Q 959 1106 1268 751 
Q 1578 397 2138 397 
Q 2388 397 2633 464 
Q 2878 531 3122 666 
L 3122 134 
Q 2881 22 2623 -34 
Q 2366 -91 2075 -91 
Q 1284 -91 818 406 
Q 353 903 353 1747 
Q 353 2603 823 3093 
Q 1294 3584 2113 3584 
Q 2378 3584 2631 3529 
Q 2884 3475 3122 3366 
z
" transform="scale(0.015625)"/>
       <path id="DejaVuSans-6b" d="M 581 4863 
L 1159 4863 
L 1159 1991 
L 2875 3500 
L 3609 3500 
L 1753 1863 
L 3688 0 
L 2938 0 
L 1159 1709 
L 1159 0 
L 581 0 
L 581 4863 
z
" transform="scale(0.015625)"/>
       <path id="DejaVuSans-70" d="M 1159 525 
L 1159 -1331 
L 581 -1331 
L 581 3500 
L 1159 3500 
L 1159 2969 
Q 1341 3281 1617 3432 
Q 1894 3584 2278 3584 
Q 2916 3584 3314 3078 
Q 3713 2572 3713 1747 
Q 3713 922 3314 415 
Q 2916 -91 2278 -91 
Q 1894 -91 1617 61 
Q 1341 213 1159 525 
z
M 3116 1747 
Q 3116 2381 2855 2742 
Q 2594 3103 2138 3103 
Q 1681 3103 1420 2742 
Q 1159 2381 1159 1747 
Q 1159 1113 1420 752 
Q 1681 391 2138 391 
Q 2594 391 2855 752 
Q 3116 1113 3116 1747 
z
" transform="scale(0.015625)"/>
       <path id="DejaVuSans-66" d="M 2375 4863 
L 2375 4384 
L 1825 4384 
Q 1516 4384 1395 4259 
Q 1275 4134 1275 3809 
L 1275 3500 
L 2222 3500 
L 2222 3053 
L 1275 3053 
L 1275 0 
L 697 0 
L 697 3053 
L 147 3053 
L 147 3500 
L 697 3500 
L 697 3744 
Q 697 4328 969 4595 
Q 1241 4863 1831 4863 
L 2375 4863 
z
" transform="scale(0.015625)"/>
      </defs>
      <use xlink:href="#DejaVuSans-42"/>
      <use xlink:href="#DejaVuSans-72" x="68.603516"/>
      <use xlink:href="#DejaVuSans-75" x="109.716797"/>
      <use xlink:href="#DejaVuSans-65" x="173.095703"/>
      <use xlink:href="#DejaVuSans-63" x="234.619141"/>
      <use xlink:href="#DejaVuSans-6b" x="289.599609"/>
      <use xlink:href="#DejaVuSans-65" x="343.884766"/>
      <use xlink:href="#DejaVuSans-6e" x="405.408203"/>
      <use xlink:href="#DejaVuSans-6b" x="468.787109"/>
      <use xlink:href="#DejaVuSans-6f" x="523.072266"/>
      <use xlink:href="#DejaVuSans-70" x="584.253906"/>
      <use xlink:href="#DejaVuSans-66" x="647.730469"/>
     </g>
    </g>
    <g id="line2d_42">
     <path d="M 843.729375 78.05 
L 855.729375 78.05 
L 867.729375 78.05 
" style="fill: none; stroke: #348abd; stroke-width: 2; stroke-linecap: square"/>
     <g>
      <use xlink:href="#m94cec1bee3" x="855.729375" y="78.05" style="fill: #348abd"/>
     </g>
    </g>
    <g id="text_23">
     <!-- Altstadt Nordwest -->
     <g style="fill: #333333" transform="translate(877.329375 82.25) scale(0.12 -0.12)">
      <defs>
       <path id="DejaVuSans-4e" d="M 628 4666 
L 1478 4666 
L 3547 763 
L 3547 4666 
L 4159 4666 
L 4159 0 
L 3309 0 
L 1241 3903 
L 1241 0 
L 628 0 
L 628 4666 
z
" transform="scale(0.015625)"/>
       <path id="DejaVuSans-77" d="M 269 3500 
L 844 3500 
L 1563 769 
L 2278 3500 
L 2956 3500 
L 3675 769 
L 4391 3500 
L 4966 3500 
L 4050 0 
L 3372 0 
L 2619 2869 
L 1863 0 
L 1184 0 
L 269 3500 
z
" transform="scale(0.015625)"/>
      </defs>
      <use xlink:href="#DejaVuSans-41"/>
      <use xlink:href="#DejaVuSans-6c" x="68.408203"/>
      <use xlink:href="#DejaVuSans-74" x="96.191406"/>
      <use xlink:href="#DejaVuSans-73" x="135.400391"/>
      <use xlink:href="#DejaVuSans-74" x="187.5"/>
      <use xlink:href="#DejaVuSans-61" x="226.708984"/>
      <use xlink:href="#DejaVuSans-64" x="287.988281"/>
      <use xlink:href="#DejaVuSans-74" x="351.464844"/>
      <use xlink:href="#DejaVuSans-20" x="390.673828"/>
      <use xlink:href="#DejaVuSans-4e" x="422.460938"/>
      <use xlink:href="#DejaVuSans-6f" x="497.265625"/>
      <use xlink:href="#DejaVuSans-72" x="558.447266"/>
      <use xlink:href="#DejaVuSans-64" x="597.810547"/>
      <use xlink:href="#DejaVuSans-77" x="661.287109"/>
      <use xlink:href="#DejaVuSans-65" x="743.074219"/>
      <use xlink:href="#DejaVuSans-73" x="804.597656"/>
      <use xlink:href="#DejaVuSans-74" x="856.697266"/>
     </g>
    </g>
    <g id="line2d_43">
     <path d="M 843.729375 95.66375 
L 855.729375 95.66375 
L 867.729375 95.66375 
" style="fill: none; stroke: #988ed5; stroke-width: 2; stroke-linecap: square"/>
     <g>
      <use xlink:href="#m5f5f7d5ec2" x="855.729375" y="95.66375" style="fill: #988ed5"/>
     </g>
    </g>
    <g id="text_24">
     <!-- Altstadt Nordost -->
     <g style="fill: #333333" transform="translate(877.329375 99.86375) scale(0.12 -0.12)">
      <use xlink:href="#DejaVuSans-41"/>
      <use xlink:href="#DejaVuSans-6c" x="68.408203"/>
      <use xlink:href="#DejaVuSans-74" x="96.191406"/>
      <use xlink:href="#DejaVuSans-73" x="135.400391"/>
      <use xlink:href="#DejaVuSans-74" x="187.5"/>
      <use xlink:href="#DejaVuSans-61" x="226.708984"/>
      <use xlink:href="#DejaVuSans-64" x="287.988281"/>
      <use xlink:href="#DejaVuSans-74" x="351.464844"/>
      <use xlink:href="#DejaVuSans-20" x="390.673828"/>
      <use xlink:href="#DejaVuSans-4e" x="422.460938"/>
      <use xlink:href="#DejaVuSans-6f" x="497.265625"/>
      <use xlink:href="#DejaVuSans-72" x="558.447266"/>
      <use xlink:href="#DejaVuSans-64" x="597.810547"/>
      <use xlink:href="#DejaVuSans-6f" x="661.287109"/>
      <use xlink:href="#DejaVuSans-73" x="722.46875"/>
      <use xlink:href="#DejaVuSans-74" x="774.568359"/>
     </g>
    </g>
    <g id="line2d_44">
     <path d="M 843.729375 113.2775 
L 855.729375 113.2775 
L 867.729375 113.2775 
" style="fill: none; stroke: #777777; stroke-width: 2; stroke-linecap: square"/>
     <g>
      <use xlink:href="#m77cb0f9fe0" x="855.729375" y="113.2775" style="fill: #777777"/>
     </g>
    </g>
    <g id="text_25">
     <!-- Altstadt Suedost -->
     <g style="fill: #333333" transform="translate(877.329375 117.4775) scale(0.12 -0.12)">
      <use xlink:href="#DejaVuSans-41"/>
      <use xlink:href="#DejaVuSans-6c" x="68.408203"/>
      <use xlink:href="#DejaVuSans-74" x="96.191406"/>
      <use xlink:href="#DejaVuSans-73" x="135.400391"/>
      <use xlink:href="#DejaVuSans-74" x="187.5"/>
      <use xlink:href="#DejaVuSans-61" x="226.708984"/>
      <use xlink:href="#DejaVuSans-64" x="287.988281"/>
      <use xlink:href="#DejaVuSans-74" x="351.464844"/>
      <use xlink:href="#DejaVuSans-20" x="390.673828"/>
      <use xlink:href="#DejaVuSans-53" x="422.460938"/>
      <use xlink:href="#DejaVuSans-75" x="485.9375"/>
      <use xlink:href="#DejaVuSans-65" x="549.316406"/>
      <use xlink:href="#DejaVuSans-64" x="610.839844"/>
      <use xlink:href="#DejaVuSans-6f" x="674.316406"/>
      <use xlink:href="#DejaVuSans-73" x="735.498047"/>
      <use xlink:href="#DejaVuSans-74" x="787.597656"/>
     </g>
    </g>
    <g id="line2d_45">
     <path d="M 843.729375 130.89125 
L 855.729375 130.89125 
L 867.729375 130.89125 
" style="fill: none; stroke: #fbc15e; stroke-width: 2; stroke-linecap: square"/>
     <g>
      <use xlink:href="#m05ce2b9cd0" x="855.729375" y="130.89125" style="fill: #fbc15e"/>
     </g>
    </g>
    <g id="text_26">
     <!-- Altstadt Suedwest -->
     <g style="fill: #333333" transform="translate(877.329375 135.09125) scale(0.12 -0.12)">
      <use xlink:href="#DejaVuSans-41"/>
      <use xlink:href="#DejaVuSans-6c" x="68.408203"/>
      <use xlink:href="#DejaVuSans-74" x="96.191406"/>
      <use xlink:href="#DejaVuSans-73" x="135.400391"/>
      <use xlink:href="#DejaVuSans-74" x="187.5"/>
      <use xlink:href="#DejaVuSans-61" x="226.708984"/>
      <use xlink:href="#DejaVuSans-64" x="287.988281"/>
      <use xlink:href="#DejaVuSans-74" x="351.464844"/>
      <use xlink:href="#DejaVuSans-20" x="390.673828"/>
      <use xlink:href="#DejaVuSans-53" x="422.460938"/>
      <use xlink:href="#DejaVuSans-75" x="485.9375"/>
      <use xlink:href="#DejaVuSans-65" x="549.316406"/>
      <use xlink:href="#DejaVuSans-64" x="610.839844"/>
      <use xlink:href="#DejaVuSans-77" x="674.316406"/>
      <use xlink:href="#DejaVuSans-65" x="756.103516"/>
      <use xlink:href="#DejaVuSans-73" x="817.626953"/>
      <use xlink:href="#DejaVuSans-74" x="869.726562"/>
     </g>
    </g>
    <g id="line2d_46">
     <path d="M 843.729375 148.505 
L 855.729375 148.505 
L 867.729375 148.505 
" style="fill: none; stroke: #8eba42; stroke-width: 2; stroke-linecap: square"/>
     <g>
      <use xlink:href="#m9e939868ea" x="855.729375" y="148.505" style="fill: #8eba42"/>
     </g>
    </g>
    <g id="text_27">
     <!-- Probierlweg -->
     <g style="fill: #333333" transform="translate(877.329375 152.705) scale(0.12 -0.12)">
      <defs>
       <path id="DejaVuSans-50" d="M 1259 4147 
L 1259 2394 
L 2053 2394 
Q 2494 2394 2734 2622 
Q 2975 2850 2975 3272 
Q 2975 3691 2734 3919 
Q 2494 4147 2053 4147 
L 1259 4147 
z
M 628 4666 
L 2053 4666 
Q 2838 4666 3239 4311 
Q 3641 3956 3641 3272 
Q 3641 2581 3239 2228 
Q 2838 1875 2053 1875 
L 1259 1875 
L 1259 0 
L 628 0 
L 628 4666 
z
" transform="scale(0.015625)"/>
       <path id="DejaVuSans-67" d="M 2906 1791 
Q 2906 2416 2648 2759 
Q 2391 3103 1925 3103 
Q 1463 3103 1205 2759 
Q 947 2416 947 1791 
Q 947 1169 1205 825 
Q 1463 481 1925 481 
Q 2391 481 2648 825 
Q 2906 1169 2906 1791 
z
M 3481 434 
Q 3481 -459 3084 -895 
Q 2688 -1331 1869 -1331 
Q 1566 -1331 1297 -1286 
Q 1028 -1241 775 -1147 
L 775 -588 
Q 1028 -725 1275 -790 
Q 1522 -856 1778 -856 
Q 2344 -856 2625 -561 
Q 2906 -266 2906 331 
L 2906 616 
Q 2728 306 2450 153 
Q 2172 0 1784 0 
Q 1141 0 747 490 
Q 353 981 353 1791 
Q 353 2603 747 3093 
Q 1141 3584 1784 3584 
Q 2172 3584 2450 3431 
Q 2728 3278 2906 2969 
L 2906 3500 
L 3481 3500 
L 3481 434 
z
" transform="scale(0.015625)"/>
      </defs>
      <use xlink:href="#DejaVuSans-50"/>
      <use xlink:href="#DejaVuSans-72" x="58.552734"/>
      <use xlink:href="#DejaVuSans-6f" x="97.416016"/>
      <use xlink:href="#DejaVuSans-62" x="158.597656"/>
      <use xlink:href="#DejaVuSans-69" x="222.074219"/>
      <use xlink:href="#DejaVuSans-65" x="249.857422"/>
      <use xlink:href="#DejaVuSans-72" x="311.380859"/>
      <use xlink:href="#DejaVuSans-6c" x="352.494141"/>
      <use xlink:href="#DejaVuSans-77" x="380.277344"/>
      <use xlink:href="#DejaVuSans-65" x="462.064453"/>
      <use xlink:href="#DejaVuSans-67" x="523.587891"/>
     </g>
    </g>
   </g>
  </g>
 </g>
 <defs>
  <clipPath id="p8ec43f6dce">
   <rect x="43.175" y="29.04" width="954.025" height="481.378464"/>
  </clipPath>
 </defs>
</svg>
