<?xml version="1.0" standalone="no"?>
<!DOCTYPE svg PUBLIC "-//W3C//DTD SVG 20010904//EN"
 "http://www.w3.org/TR/2001/REC-SVG-20010904/DTD/svg10.dtd">
<svg version="1.0" xmlns="http://www.w3.org/2000/svg"
 width="1204.000000pt" height="564.000000pt" viewBox="0 0 1204.000000 564.000000"
 preserveAspectRatio="xMidYMid meet">

<g transform="translate(0.000000,564.000000) scale(0.100000,-0.100000)"
fill="#000000" stroke="none">
<path d="M144 4807 c-3 -8 -3 -607 -1 -1333 3 -1299 4 -1321 25 -1431 122
-634 555 -1137 1153 -1336 203 -68 297 -82 544 -82 190 1 234 4 324 23 540
118 971 449 1206 926 104 213 155 397 175 633 10 127 14 2570 4 2597 -6 15
-166 16 -1715 16 -1418 0 -1711 -2 -1715 -13z m3381 -1342 c0 -1380 2 -1331
-51 -1535 -60 -232 -177 -462 -325 -640 -29 -36 -61 -73 -69 -84 -39 -48 -206
-186 -300 -249 -179 -119 -371 -199 -602 -249 -89 -19 -133 -22 -318 -22 -241
0 -328 13 -530 80 -619 205 -1057 754 -1129 1416 -12 108 -16 2560 -4 2571 3
4 754 6 1667 5 l1661 -3 0 -1290z"/>
<path d="M1715 4620 c-78 -7 -127 -28 -151 -65 -15 -24 -21 -25 -107 -25 l-90
0 21 -23 c12 -13 22 -29 22 -37 0 -7 -12 3 -27 23 -22 29 -35 36 -62 37 -26 0
-32 -3 -27 -15 17 -42 16 -47 -3 -19 -15 23 -33 34 -59 39 -20 4 -56 15 -79
25 -36 16 -42 16 -47 3 -18 -47 3 -132 42 -167 12 -10 24 -32 28 -49 6 -28 8
-29 20 -13 11 16 32 18 166 20 84 2 208 6 275 11 92 6 130 5 153 -5 96 -40 92
-170 -5 -170 -20 0 -49 7 -66 15 -26 14 -58 15 -252 6 -199 -9 -256 -6 -236
13 2 2 92 7 199 9 107 3 197 9 200 14 12 19 -68 31 -175 26 -138 -7 -238 9
-297 46 -24 15 -70 58 -103 96 -96 110 -142 153 -186 176 -48 24 -149 38 -149
20 0 -6 5 -11 11 -11 34 0 86 -40 133 -104 94 -125 221 -232 299 -252 16 -3
31 -12 33 -19 3 -7 -8 -42 -25 -79 -16 -36 -27 -68 -23 -70 4 -2 23 3 43 11
29 11 39 22 48 53 11 39 13 40 56 40 24 0 47 -4 50 -10 9 -15 41 -12 55 5 16
19 98 19 124 0 17 -13 22 -13 35 -1 9 7 42 17 74 21 49 5 61 4 83 -14 60 -47
164 -14 184 58 20 75 -25 127 -137 156 -37 10 -79 25 -93 32 -15 8 -17 11 -5
7 11 -3 53 -13 93 -20 89 -16 134 -42 157 -91 21 -43 15 -105 -12 -135 -43
-49 -124 -61 -188 -28 -22 11 -54 20 -73 20 -19 0 -45 -9 -59 -20 -31 -24 -56
-26 -73 -5 -16 19 -69 19 -94 0 -25 -19 -65 -19 -90 0 -29 22 -43 18 -60 -17
-9 -17 -16 -33 -16 -35 0 -1 123 -3 273 -3 297 1 446 11 504 35 105 44 158
157 118 252 -8 20 -13 38 -10 41 3 3 32 9 65 14 46 6 85 22 165 67 58 33 129
68 158 79 l52 20 -40 11 c-96 27 -262 3 -375 -54 -40 -20 -74 -34 -77 -31 -3
2 21 18 53 34 31 16 52 32 47 35 -35 22 -316 32 -468 17z m-9 -123 c-3 -12 -6
-28 -6 -34 0 -15 -46 0 -72 24 -27 25 -22 29 33 31 48 1 51 0 45 -21z m204 13
c0 -7 -108 -48 -149 -56 -30 -6 -33 -5 -28 10 4 10 7 25 7 34 0 15 13 17 85
17 47 1 85 -2 85 -5z m-410 -15 c7 -9 11 -17 8 -20 -2 -2 -12 4 -21 15 -9 11
-13 20 -8 20 5 0 14 -7 21 -15z m-281 -5 c22 -11 32 -35 25 -55 -9 -22 -21
-18 -20 7 1 13 -8 27 -21 33 -13 7 -20 15 -16 18 8 9 11 9 32 -3z"/>
<path d="M603 4554 c-12 -3 -26 -11 -33 -18 -8 -11 -3 -15 25 -20 27 -5 59
-31 143 -114 115 -115 187 -161 278 -181 28 -5 67 -8 87 -4 l35 5 -68 34 c-54
27 -93 60 -182 150 -62 63 -125 122 -139 129 -29 15 -112 26 -146 19z"/>
<path d="M2367 4499 c-25 -15 -22 -22 28 -58 35 -25 52 -31 72 -26 l26 6 -26
27 c-41 42 -79 62 -100 51z"/>
<path d="M2277 4444 c-15 -8 -49 -18 -76 -21 l-48 -5 13 -37 c19 -51 17 -89
-7 -141 -12 -26 -16 -46 -10 -48 5 -2 21 -12 35 -23 21 -16 26 -29 26 -63 0
-71 -28 -100 -180 -186 -239 -136 -598 -331 -617 -336 -17 -5 -129 53 -443
229 l-115 64 -16 109 c-24 160 -52 214 -110 214 -32 0 -78 -20 -97 -42 -9 -11
-5 -18 19 -32 29 -17 49 -17 94 -1 17 6 17 4 -4 -14 -13 -12 -30 -21 -38 -21
-13 0 -14 -10 -8 -55 3 -30 4 -55 1 -55 -4 0 -40 32 -82 70 -93 86 -115 90
-174 29 -50 -51 -51 -69 -6 -69 26 0 41 8 64 34 17 19 32 33 35 30 11 -11 -8
-56 -31 -75 l-25 -20 36 -37 c20 -21 37 -40 37 -44 0 -3 -37 -11 -83 -18 -91
-14 -114 -28 -123 -75 -6 -35 7 -97 21 -101 6 -2 19 8 29 23 16 22 18 32 9 65
-14 50 10 53 28 3 13 -34 14 -35 70 -35 53 0 59 -2 93 -40 41 -46 42 -47 20
-79 -16 -22 -16 -25 0 -52 20 -33 12 -37 -23 -10 -20 15 -29 17 -48 8 -30 -13
-29 -23 5 -52 40 -35 72 -32 128 15 27 23 60 43 73 47 33 8 83 -19 122 -67 50
-62 67 -76 222 -182 l142 -98 6 78 c5 82 21 120 70 177 45 51 55 43 14 -11
-20 -26 -43 -63 -51 -83 -16 -38 -21 -133 -9 -172 6 -19 -15 -44 -161 -187
-93 -90 -184 -175 -201 -189 l-32 -25 -38 23 c-21 13 -62 43 -91 67 -66 54
-94 65 -127 50 -23 -10 -65 -79 -65 -106 0 -7 15 -12 34 -12 27 0 39 7 56 31
26 35 35 33 20 -5 -9 -23 -6 -34 21 -72 16 -24 28 -48 25 -53 -3 -5 -38 -12
-76 -16 -55 -6 -78 -13 -102 -33 -29 -24 -30 -29 -25 -79 3 -29 9 -58 13 -64
13 -22 34 23 34 75 1 47 2 49 15 32 8 -11 15 -28 15 -38 0 -21 22 -23 100 -8
29 6 54 9 56 8 1 -2 -20 -39 -47 -83 -53 -86 -57 -101 -34 -145 13 -26 71 -68
80 -58 2 2 6 19 10 39 6 34 4 38 -31 60 -43 26 -31 38 15 15 40 -21 45 -21 79
14 26 25 38 30 80 30 30 0 63 7 81 17 28 17 32 17 59 1 24 -14 32 -15 48 -4
10 7 28 16 39 20 15 5 12 -1 -11 -26 -28 -29 -30 -36 -21 -58 6 -14 12 -27 14
-29 1 -2 18 8 38 23 45 35 46 68 3 126 -18 24 -37 49 -42 56 -7 9 10 33 59 86
64 68 73 74 129 86 33 6 71 20 85 29 46 29 174 137 209 176 33 35 60 46 32 12
-16 -19 -23 -12 120 -117 206 -153 324 -214 499 -259 40 -10 89 -29 109 -41
34 -21 35 -21 28 -2 -21 55 -79 134 -146 197 -52 48 -65 64 -41 51 107 -60
199 -187 227 -312 14 -64 15 -88 5 -179 -7 -58 -23 -148 -37 -200 -13 -52 -28
-139 -33 -193 -5 -63 -14 -108 -25 -124 -19 -31 -85 -66 -121 -66 -23 0 -25
-3 -19 -27 14 -59 22 -66 70 -59 64 8 120 40 156 89 29 40 31 38 12 -23 -15
-49 144 -70 232 -31 26 12 51 21 57 21 20 0 0 -127 -30 -192 -54 -115 -116
-168 -196 -168 -37 0 -58 9 -118 49 -41 27 -85 59 -99 70 -30 24 -77 27 -107
6 -21 -15 -61 -101 -51 -111 12 -11 58 17 73 46 21 40 29 38 20 -6 -6 -34 -3
-40 36 -80 24 -24 40 -46 37 -49 -3 -3 -41 -10 -84 -14 -67 -8 -82 -13 -101
-36 -25 -29 -30 -84 -12 -131 l10 -28 19 30 c14 20 18 40 15 64 l-5 35 15 -31
14 -32 86 5 c47 3 85 2 85 -2 0 -5 -12 -45 -27 -90 -31 -96 -27 -125 21 -154
46 -29 56 -26 56 13 0 28 -5 36 -30 46 -39 16 -31 26 9 12 30 -11 31 -9 63 43
26 45 38 55 67 60 20 3 58 13 84 21 47 16 48 15 82 -10 l34 -26 41 21 c22 12
43 19 46 16 3 -3 -5 -11 -18 -17 -49 -26 -56 -37 -44 -75 13 -41 17 -42 62
-14 66 41 69 73 13 134 l-42 45 45 48 c217 233 319 564 239 775 l-11 27 -38
-38 c-45 -45 -77 -54 -121 -36 -62 26 -74 104 -47 327 7 59 12 117 11 128 -2
19 2 20 86 13 202 -15 373 76 457 244 31 64 36 86 40 161 5 95 -12 181 -50
261 -23 46 -116 145 -249 262 -119 104 -152 191 -110 283 34 75 108 121 209
131 52 5 82 0 179 -31 18 -6 24 0 42 40 12 26 21 49 21 51 0 12 -129 47 -191
51 -89 7 -154 -11 -219 -58 -23 -17 -44 -28 -47 -26 -11 12 40 88 87 130 62
56 120 77 233 84 95 6 95 6 100 78 l2 30 -79 3 c-44 2 -102 -2 -128 -8 -268
-57 -436 -359 -342 -615 14 -38 28 -77 31 -86 4 -14 -7 -17 -65 -21 -88 -6
-180 -48 -240 -109 -43 -44 -102 -148 -102 -180 0 -15 77 -87 83 -78 1 2 13
26 25 52 33 72 102 140 175 173 53 24 75 28 150 28 81 0 89 -2 113 -25 l26
-26 -64 -5 c-142 -12 -251 -100 -302 -244 -16 -47 -15 -50 37 -89 43 -32 47
-30 71 37 24 66 85 131 147 158 43 18 66 21 129 18 66 -3 82 -7 114 -32 24
-18 48 -50 63 -83 22 -48 25 -65 21 -137 -7 -128 -63 -211 -177 -265 -50 -23
-68 -26 -168 -26 -106 0 -113 -1 -113 -20 -1 -11 -14 9 -30 44 -63 135 -130
206 -480 505 -138 119 -310 286 -310 302 0 14 118 104 137 104 13 0 29 -20
106 -139 23 -35 54 -70 68 -79 24 -14 28 -13 68 14 l43 28 -42 34 c-22 19 -53
57 -67 86 -14 28 -39 68 -56 90 l-31 39 45 38 c90 78 111 76 181 -11 40 -49
136 -120 163 -120 9 0 65 71 65 83 0 3 -10 7 -22 11 -30 7 -69 44 -108 101
-18 26 -49 58 -70 73 l-37 28 33 39 33 40 78 -29 c118 -43 158 -51 188 -38 21
10 25 19 25 52 0 38 -2 40 -31 40 -17 0 -62 14 -99 30 -38 17 -83 33 -100 37
-30 6 -31 7 -28 57 3 47 5 51 31 54 15 2 63 -6 107 -17 97 -26 155 -27 164 -5
3 9 6 33 6 55 l0 39 -43 0 c-23 0 -74 9 -112 20 -38 11 -88 20 -111 20 l-41 0
-7 46 c-3 25 -3 50 -1 55 3 5 61 6 128 3 69 -3 128 -1 135 4 10 7 12 20 5 53
l-9 44 -44 -3 c-25 -1 -77 4 -117 11 -49 10 -88 12 -125 6 -51 -8 -55 -7 -104
26 -56 39 -67 41 -107 19z"/>
<path d="M453 4439 c-49 -14 -50 -29 -3 -29 52 0 67 -8 160 -87 41 -36 95 -77
119 -91 57 -33 152 -53 214 -46 48 7 66 24 25 24 -38 1 -100 34 -168 92 -161
135 -242 167 -347 137z"/>
<path d="M2540 4249 c0 -32 19 -59 42 -59 18 0 20 4 14 31 -3 17 -6 35 -6 40
0 5 -11 9 -25 9 -19 0 -25 -5 -25 -21z"/>
<path d="M2540 4011 c0 -33 3 -39 25 -44 29 -5 45 15 45 57 0 23 -4 26 -35 26
-34 0 -35 -1 -35 -39z"/>
<path d="M2471 3817 l-22 -24 25 -17 c34 -22 41 -20 61 10 18 27 13 38 -21 48
-14 4 -27 -1 -43 -17z"/>
<path d="M2293 3629 c-29 -22 -53 -43 -53 -47 0 -4 9 -18 19 -31 l19 -24 61
48 61 48 -22 24 c-12 12 -24 23 -27 23 -3 0 -30 -18 -58 -41z"/>
<path d="M2060 3454 c-67 -52 -66 -51 -40 -79 13 -14 28 -25 34 -25 18 0 106
64 106 78 0 19 -31 62 -44 61 -6 0 -31 -16 -56 -35z"/>
<path d="M2155 2635 c-31 -25 -166 -63 -262 -75 -251 -31 -299 -52 -438 -188
-65 -63 -101 -91 -131 -100 -50 -15 -94 -15 -130 -2 -32 12 -41 6 -73 -50
l-23 -40 48 -21 c90 -40 262 -12 331 53 13 12 23 17 23 11 0 -5 -9 -18 -20
-28 -12 -11 -20 -31 -20 -49 0 -40 42 -129 84 -181 96 -116 97 -142 14 -230
-70 -76 -102 -95 -154 -95 -35 0 -46 9 -141 106 -102 104 -105 106 -141 101
-25 -4 -48 -18 -69 -42 -46 -49 -43 -65 11 -65 38 0 48 5 70 33 21 26 26 28
26 13 0 -11 -9 -29 -20 -41 -20 -21 -20 -21 7 -58 14 -20 24 -39 21 -42 -2 -3
-40 -8 -84 -11 -90 -6 -131 -19 -144 -45 -14 -25 -12 -126 1 -135 14 -8 46 30
58 71 7 23 9 25 10 9 1 -19 8 -22 71 -26 39 -3 73 -8 77 -11 3 -3 -24 -42 -61
-86 -81 -97 -83 -114 -22 -179 40 -42 44 -44 39 -20 -3 14 0 35 6 46 9 17 6
26 -15 51 -29 35 -19 41 19 11 32 -25 35 -25 64 2 20 19 34 21 143 22 l121 1
19 -32 c18 -30 21 -32 49 -22 17 6 38 9 48 7 14 -3 9 -9 -19 -23 -31 -15 -38
-24 -38 -48 0 -25 3 -28 23 -22 44 14 82 41 85 63 2 13 -13 53 -33 89 -25 45
-33 69 -25 71 7 3 52 31 100 63 106 71 216 185 261 272 l33 65 -47 52 c-48 53
-77 123 -77 185 0 28 -4 33 -37 42 l-38 10 36 2 c142 5 453 168 573 301 34 38
37 45 31 83 -8 48 -32 72 -111 111 -70 35 -104 40 -129 21z"/>
<path d="M4342 3402 c-70 -25 -120 -67 -160 -133 -39 -64 -52 -108 -52 -172 0
-91 44 -146 151 -191 202 -85 231 -114 207 -218 -14 -65 -53 -114 -115 -144
-45 -22 -62 -26 -106 -21 -97 12 -131 57 -121 160 l6 67 -50 0 c-28 0 -54 -6
-60 -13 -17 -20 -25 -128 -13 -173 6 -23 20 -53 32 -68 86 -109 342 -92 465
31 71 70 114 208 93 295 -15 63 -64 107 -160 143 -164 61 -189 79 -196 148
-15 135 107 242 236 207 53 -14 71 -42 71 -108 0 -61 8 -68 76 -57 l46 7 -4
78 c-4 88 -20 120 -79 155 -49 28 -195 32 -267 7z"/>
<path d="M6233 3402 c-48 -4 -43 8 -78 -157 -14 -66 -27 -126 -30 -133 -3 -8
-17 1 -38 24 -30 33 -41 38 -91 42 -113 9 -197 -53 -263 -195 -71 -155 -96
-383 -50 -473 44 -87 155 -113 249 -57 26 15 52 35 57 45 8 14 10 9 11 -21 l0
-38 52 3 52 3 41 200 c23 110 67 322 99 470 31 149 56 273 56 276 0 11 -22 14
-67 11z m-186 -337 c50 -35 54 -162 10 -326 -31 -115 -65 -171 -120 -198 -49
-24 -75 -26 -111 -10 -57 26 -65 150 -22 313 30 114 65 186 103 215 34 25 108
28 140 6z"/>
<path d="M11404 3402 l-30 -3 -29 -142 c-15 -78 -30 -146 -32 -150 -3 -4 -14
4 -25 18 -29 37 -70 55 -125 55 -136 -1 -241 -124 -294 -345 -25 -104 -30
-251 -11 -307 39 -112 190 -138 292 -51 l42 36 -4 -34 -3 -34 52 -3 c48 -3 53
-1 58 20 7 33 174 837 181 873 3 17 8 37 10 46 5 18 -27 26 -82 21z m-179
-328 c50 -20 62 -157 25 -309 -34 -147 -89 -226 -165 -241 -50 -9 -87 7 -108
47 -24 45 -17 159 18 287 44 163 89 222 170 222 24 0 51 -3 60 -6z"/>
<path d="M7125 3388 c-7 -22 -195 -932 -195 -945 0 -8 109 -2 114 6 4 5 44
195 91 423 47 227 89 432 95 455 17 72 16 73 -45 73 -36 0 -57 -5 -60 -12z"/>
<path d="M9245 3378 c-9 -40 -186 -902 -188 -918 -2 -12 10 -15 53 -15 l55 0
97 465 c54 256 97 471 98 478 0 8 -17 12 -55 12 -48 0 -55 -3 -60 -22z"/>
<path d="M4913 3368 c-6 -7 -18 -55 -28 -105 l-19 -93 -48 0 c-52 0 -64 -11
-70 -66 -3 -28 -2 -29 45 -32 26 -2 47 -7 47 -12 0 -5 -22 -118 -50 -252 -56
-271 -59 -314 -31 -345 36 -39 185 -42 195 -4 19 71 19 71 -19 71 -51 0 -75
15 -74 48 0 15 22 131 48 257 l47 230 61 5 c34 3 64 7 66 10 3 3 7 23 9 45 l3
40 -57 3 c-32 2 -58 6 -58 10 1 4 9 47 20 97 10 49 16 93 14 97 -8 13 -91 9
-101 -4z"/>
<path d="M6483 3368 c-6 -7 -18 -55 -28 -105 l-19 -93 -48 0 c-52 0 -64 -11
-70 -66 -3 -28 -2 -29 45 -32 29 -2 47 -8 47 -15 0 -7 -20 -109 -45 -227 -53
-250 -63 -337 -43 -363 18 -24 92 -40 150 -32 55 8 53 7 62 61 l7 40 -34 -4
c-48 -5 -77 12 -77 46 1 15 22 131 49 257 l47 230 64 5 c68 5 76 13 79 78 1
20 -3 22 -59 22 -33 0 -60 3 -60 8 0 4 9 45 20 92 26 115 28 110 -29 110 -27
0 -53 -6 -58 -12z"/>
<path d="M10104 3372 c-7 -4 -20 -50 -31 -102 l-19 -95 -46 -3 c-53 -3 -66
-15 -70 -63 l-3 -34 48 -3 c45 -3 48 -5 44 -25 -3 -12 -29 -137 -58 -278 -47
-233 -50 -258 -38 -285 19 -39 80 -59 153 -50 57 8 66 18 66 74 0 18 -5 22
-31 22 -45 0 -69 17 -69 48 -1 15 21 132 47 260 l47 232 57 0 c64 0 76 9 81
60 l3 35 -57 3 c-65 3 -63 0 -43 92 8 36 14 77 15 93 0 25 -3 27 -42 27 -24 0
-48 -4 -54 -8z"/>
<path d="M11665 3368 c-3 -7 -13 -53 -23 -103 l-18 -90 -54 -5 c-53 -5 -55 -6
-62 -40 -11 -52 -4 -60 47 -60 25 0 45 -2 45 -5 0 -2 -25 -125 -55 -272 -34
-163 -53 -279 -49 -296 10 -48 82 -75 169 -61 42 6 45 8 53 48 l8 41 -41 5
c-53 7 -65 16 -65 48 0 15 21 132 47 260 l48 232 56 0 c64 0 77 10 81 61 l3
34 -57 3 c-37 2 -58 7 -58 15 1 7 9 51 19 99 10 48 16 90 13 93 -11 11 -103 5
-107 -7z"/>
<path d="M5288 3166 c-52 -19 -82 -40 -112 -79 -23 -30 -56 -106 -56 -128 0
-5 24 -9 53 -9 l53 0 21 49 c26 62 69 91 134 91 88 0 121 -57 85 -145 -17 -41
-42 -54 -171 -89 -55 -16 -120 -39 -145 -53 -85 -46 -126 -127 -118 -236 7
-96 58 -142 158 -141 60 1 107 20 154 63 16 14 30 22 32 16 23 -60 59 -80 122
-69 37 7 37 8 47 52 6 30 5 32 -19 32 -18 0 -26 5 -26 18 0 10 21 119 46 243
51 252 53 312 14 354 -13 14 -40 29 -59 35 -51 14 -169 12 -213 -4z m148 -363
c-2 -10 -10 -45 -16 -78 -6 -33 -16 -74 -21 -92 -13 -42 -78 -99 -128 -113
-78 -21 -121 11 -121 88 0 89 45 134 178 178 116 39 115 38 108 17z"/>
<path d="M7545 3161 c-23 -10 -54 -30 -69 -45 -16 -14 -30 -26 -31 -26 -1 0
-2 17 -1 38 1 36 0 37 -40 40 -25 2 -45 -2 -51 -10 -5 -7 -40 -161 -77 -343
-37 -181 -70 -340 -73 -353 -5 -22 -3 -23 53 -20 l58 3 52 256 c28 140 58 269
67 285 32 62 85 94 156 94 40 0 53 -4 65 -22 24 -34 21 -64 -38 -347 -29 -143
-51 -263 -48 -266 8 -8 100 -6 105 3 3 4 30 127 61 274 59 281 67 367 40 407
-36 51 -152 67 -229 32z"/>
<path d="M8085 3161 c-55 -25 -121 -100 -155 -175 -60 -132 -89 -314 -67 -419
10 -48 58 -103 104 -118 59 -19 146 4 200 54 13 11 25 18 27 16 8 -8 -20 -123
-38 -157 -50 -96 -215 -106 -238 -14 -8 31 -10 32 -63 32 l-55 0 0 -32 c0 -42
27 -96 60 -120 53 -39 208 -40 281 -3 43 23 96 82 125 140 17 36 50 171 103
421 43 203 76 372 74 377 -7 12 -88 8 -101 -5 -7 -7 -12 -22 -12 -35 0 -13 -2
-23 -4 -23 -2 0 -22 18 -44 40 -37 38 -43 40 -98 40 -35 0 -75 -8 -99 -19z
m165 -107 c23 -23 25 -31 25 -122 0 -245 -108 -421 -240 -388 -79 20 -81 196
-5 399 49 131 148 180 220 111z"/>
<path d="M8712 3162 c-53 -21 -120 -86 -155 -150 -14 -26 -38 -88 -53 -137
-23 -75 -27 -110 -28 -210 -1 -109 1 -123 22 -157 37 -59 84 -82 167 -82 167
0 271 108 331 343 52 203 29 341 -66 389 -55 27 -154 29 -218 4z m157 -89 c77
-65 12 -429 -94 -522 -59 -52 -136 -49 -172 5 -57 87 32 449 126 512 42 27
109 30 140 5z"/>
<path d="M9567 3165 c-125 -46 -204 -204 -153 -304 20 -37 46 -53 142 -87 46
-16 91 -40 108 -57 25 -24 28 -33 23 -69 -11 -78 -70 -132 -147 -132 -72 0
-103 32 -104 106 l-1 53 -52 3 c-49 3 -53 1 -59 -23 -11 -44 1 -134 23 -163
52 -72 200 -90 306 -38 88 42 141 121 154 224 11 93 -35 141 -175 187 -75 24
-112 58 -112 102 0 72 55 123 134 123 63 0 86 -24 86 -90 l0 -50 49 0 c28 0
52 4 55 9 4 5 9 30 12 54 9 66 -23 130 -77 151 -49 20 -160 20 -212 1z"/>
<path d="M10478 3168 c-52 -14 -117 -73 -144 -132 -37 -78 -34 -86 30 -86 52
0 55 1 61 30 14 66 74 110 150 110 35 0 52 -6 70 -25 28 -27 30 -42 14 -98
-15 -55 -39 -72 -147 -102 -176 -49 -235 -85 -272 -161 -18 -40 -21 -61 -18
-126 3 -71 6 -80 34 -109 61 -61 175 -58 259 7 52 39 55 40 55 16 0 -34 36
-56 91 -55 58 1 66 6 71 48 2 23 -1 30 -17 33 -11 3 -23 9 -26 14 -4 6 16 116
42 245 27 130 49 249 49 265 0 93 -63 138 -190 137 -41 -1 -91 -5 -112 -11z
m131 -440 c-11 -50 -27 -105 -37 -122 -46 -79 -165 -117 -213 -69 -42 42 -18
163 40 201 23 16 192 78 217 81 8 1 5 -28 -7 -91z"/>
</g>
</svg>
