<?xml version="1.0" encoding="UTF-8"?>
<svg width="240px" height="87px" viewBox="0 0 240 87" version="1.1" xmlns="http://www.w3.org/2000/svg" xmlns:xlink="http://www.w3.org/1999/xlink">
    <!-- Generator: Sketch 52.6 (67491) - http://www.bohemiancoding.com/sketch -->
    <title>Group 5</title>
    <desc>Created with Sketch.</desc>
    <defs>
        <polygon id="path-1" points="50.9384753 0.922731707 83.0597309 0.922731707 83.0597309 32.952478 50.9384753 32.952478"></polygon>
        <polygon id="path-3" points="0.845811659 0.16537561 32.9670673 0.16537561 32.9670673 32.195122 0.845811659 32.195122"></polygon>
    </defs>
    <g id="Screendesign" stroke="none" stroke-width="1" fill="none" fill-rule="evenodd">
        <g id="01-//-Desktop-1680" transform="translate(-1171.000000, -72.000000)">
            <g id="Group-5" transform="translate(1171.000000, 72.000000)">
                <g id="Group-4" transform="translate(1.000000, 54.000000)">
                    <path d="M126.447426,16.9376585 C126.447426,19.8856585 124.050655,22.2766829 121.094242,22.2766829 C118.136753,22.2766829 115.739982,19.8856585 115.739982,16.9376585 C115.739982,13.9896585 118.136753,11.5986341 121.094242,11.5986341 C124.050655,11.5986341 126.447426,13.9896585 126.447426,16.9376585" id="Fill-1" fill="#BEF500"></path>
                    <path d="M234.638888,16.9376585 C234.638888,19.8856585 232.242117,22.2766829 229.285704,22.2766829 C226.329291,22.2766829 223.93252,19.8856585 223.93252,16.9376585 C223.93252,13.9896585 226.329291,11.5986341 229.285704,11.5986341 C232.242117,11.5986341 234.638888,13.9896585 234.638888,16.9376585" id="Fill-3" fill="#BEF500"></path>
                    <mask id="mask-2" fill="white">
                        <use xlink:href="#path-1"></use>
                    </mask>
                    <g id="Clip-6"></g>
                    <path d="M83.0597309,16.9376585 C83.0597309,25.7816585 75.869417,32.9525854 66.9991031,32.9525854 C58.1287892,32.9525854 50.9384753,25.7816585 50.9384753,16.9376585 C50.9384753,8.09365854 58.1287892,0.922731707 66.9991031,0.922731707 C75.869417,0.922731707 83.0597309,8.09365854 83.0597309,16.9376585" id="Fill-5" fill="#BEF500"></path>
                    <g id="Group-10" transform="translate(158.282511, 0.757356)">
                        <mask id="mask-4" fill="white">
                            <use xlink:href="#path-3"></use>
                        </mask>
                        <g id="Clip-9"></g>
                        <path d="M32.9670673,16.1803024 C32.9670673,25.0243024 25.7756771,32.1952293 16.9064395,32.1952293 C8.03612556,32.1952293 0.845811659,25.0243024 0.845811659,16.1803024 C0.845811659,7.33630244 8.03612556,0.16537561 16.9064395,0.16537561 C25.7756771,0.16537561 32.9670673,7.33630244 32.9670673,16.1803024" id="Fill-8" fill="#BEF500"></path>
                    </g>
                    <path d="M19.8226368,22.6599122 C16.6542063,27.6383512 10.0375247,29.1118146 5.04487892,25.9513268 C0.0522331839,22.790839 -1.42543498,16.1940585 1.74407175,11.2156195 C4.91250224,6.23718049 11.5291839,4.76371707 16.5218296,7.92420488 C21.5144753,11.0846927 22.9921435,17.6814732 19.8226368,22.6599122" id="Fill-11" fill="#BEF500"></path>
                </g>
                <g id="Group-2" fill="#000000">
                    <path d="M16.5991749,14.245161 L11.7518206,3.26662439 L6.90123767,14.245161 L16.5991749,14.245161 Z M17.7238386,16.810039 L5.77980269,16.810039 L3.3087713,22.4109171 L0.000430493273,22.4109171 L10.1772915,0.000965853659 L13.3564843,0.000965853659 L23.5667085,22.4109171 L20.19487,22.4109171 L17.7238386,16.810039 Z" id="Fill-13"></path>
                    <polygon id="Fill-15" points="66.3949776 22.4119902 69.6032287 22.4119902 69.6032287 0.000965853659 66.3949776 0.000965853659"></polygon>
                    <polygon id="Fill-17" points="131.756556 0.000429268293 131.756556 22.4114537 129.126242 22.4114537 115.64104 5.7011122 115.64104 22.4114537 112.431713 22.4114537 112.431713 0.000429268293 115.062027 0.000429268293 128.547229 16.7129171 128.547229 0.000429268293"></polygon>
                    <polygon id="Fill-18" points="174.584395 22.4119902 177.793722 22.4119902 177.793722 0.000965853659 174.584395 0.000965853659"></polygon>
                    <polygon id="Fill-19" points="239.949525 0.000429268293 239.949525 22.4114537 237.315982 22.4114537 223.834009 5.7011122 223.834009 22.4114537 220.621453 22.4114537 220.621453 0.000429268293 223.254996 0.000429268293 236.741274 16.7129171 236.741274 0.000429268293"></polygon>
                </g>
            </g>
        </g>
    </g>
</svg>